<?xml version="1.0" encoding="UTF-8"?>
<!-- Generator: visioncortex VTracer 0.6.2 -->
<svg version="1.1" xmlns="http://www.w3.org/2000/svg" width="1280" height="914">
<path d="M0 0 C0.495 0.99 0.495 0.99 1 2 C1.66 2 2.32 2 3 2 C3.495 5.465 3.495 5.465 4 9 C4.9590625 8.7215625 4.9590625 8.7215625 5.9375 8.4375 C8.74320127 8.03668553 10.6670304 8.13029206 13.4375 8.5 C17.17663938 8.99396657 20.29182238 8.8557333 24 8 C24 8.66 24 9.32 24 10 C24.680625 9.835 25.36125 9.67 26.0625 9.5 C31.03601927 8.65344353 34.71465609 8.14310406 39 11 C40 12 40 12 40.11352539 14.04125977 C40.10567017 15.35308228 40.10567017 15.35308228 40.09765625 16.69140625 C40.09282227 18.10776367 40.09282227 18.10776367 40.08789062 19.55273438 C40.07532227 21.04256836 40.07532227 21.04256836 40.0625 22.5625 C40.05798828 23.55958984 40.05347656 24.55667969 40.04882812 25.58398438 C40.03700007 28.05604849 40.02051849 30.52799518 40 33 C35.14833907 34.56575099 31.12196279 35.24108411 25.97265625 35.1953125 C24.04389648 35.18564453 24.04389648 35.18564453 22.07617188 35.17578125 C20.73827846 35.15907601 19.40038783 35.14214619 18.0625 35.125 C16.69727217 35.11495322 15.3320372 35.10583036 13.96679688 35.09765625 C10.64434801 35.07417605 7.32226679 35.04133359 4 35 C4.01160156 36.11117187 4.02320313 37.22234375 4.03515625 38.3671875 C4.08739018 45.74295051 4.12341509 52.98689216 3.12109375 60.3125 C3.06115234 61.1478125 3.06115234 61.1478125 3 62 C3.33 62.33 3.66 62.66 4 63 C4.04063832 64.66617115 4.042721 66.33388095 4 68 C4.99 68.495 4.99 68.495 6 69 C8.09173082 71.09173082 7.44335641 75.40582879 7.62109375 78.23828125 C7.84208661 80.96270781 7.84208661 80.96270781 9.03125 83.0390625 C10.25837422 85.52299943 10.16627453 87.31039945 10.0625 90.0625 C9.95467274 93.18011416 9.99901743 94.9970523 11 98 C11.66 98 12.32 98 13 98 C13.04898438 98.63808594 13.09796875 99.27617188 13.1484375 99.93359375 C13.22320312 100.75988281 13.29796875 101.58617187 13.375 102.4375 C13.47941406 103.67306641 13.47941406 103.67306641 13.5859375 104.93359375 C13.79089844 105.95646484 13.79089844 105.95646484 14 107 C14.99 107.495 14.99 107.495 16 108 C16.33333333 110.33333333 16.66666667 112.66666667 17 115 C17.99 115.495 17.99 115.495 19 116 C18.67 116.66 18.34 117.32 18 118 C18.66 118 19.32 118 20 118 C20.495 121.96 20.495 121.96 21 126 C21.99 126.33 22.98 126.66 24 127 C24.72870472 129.31470912 25.39239518 131.6505947 26 134 C26.66 134.99 27.32 135.98 28 137 C28 138.32 28 139.64 28 141 C28.99 141.33 29.98 141.66 31 142 C31 143.65 31 145.3 31 147 C31.66 147.33 32.32 147.66 33 148 C35 150 35 150 35.125 152.625 C35.08375 153.40875 35.0425 154.1925 35 155 C35.66 155 36.32 155 37 155 C37 155.66 37 156.32 37 157 C37.66 157.33 38.32 157.66 39 158 C41.0095568 160.93704456 42 162.39222485 42 166 C42.99 166.33 43.98 166.66 45 167 C45 168.32 45 169.64 45 171 C45.99 171.33 46.98 171.66 48 172 C48 172.66 48 173.32 48 174 C48.804375 174.78375 49.60875 175.5675 50.4375 176.375 C52.81810326 178.81366675 53.63635918 179.7272326 54 183 C54.66 183 55.32 183 56 183 C56.2475 183.5775 56.495 184.155 56.75 184.75 C57.93990475 187.13449889 57.93990475 187.13449889 60.125 189.125 C62 191 62 191 62 193 C62.66 193 63.32 193 64 193 C64.226875 193.556875 64.45375 194.11375 64.6875 194.6875 C66.7142398 198.25842251 69.70679909 200.7676556 72.66015625 203.58203125 C74.14069928 205.02057306 75.57384964 206.50751706 77 208 C77 208.66 77 209.32 77 210 C77.8971875 210.4021875 77.8971875 210.4021875 78.8125 210.8125 C80.99847854 211.99917406 82.41332594 213.09599113 84 215 C84 215.66 84 216.32 84 217 C84.99 217.33 85.98 217.66 87 218 C87 218.66 87 219.32 87 220 C87.5775 220.268125 88.155 220.53625 88.75 220.8125 C91.05550043 222.02929189 93.02056192 223.30333879 95 225 C95 225.66 95 226.32 95 227 C95.66 227 96.32 227 97 227 C98.02408568 227.9753197 99.01834406 228.98198643 100 230 C100.886875 230.680625 101.77375 231.36125 102.6875 232.0625 C103.450625 232.701875 104.21375 233.34125 105 234 C105 234.66 105 235.32 105 236 C105.70125 236.25007812 106.4025 236.50015625 107.125 236.7578125 C110.36273489 238.15672513 113.0788192 239.90022217 116 241.875 C117.5159375 242.89207031 117.5159375 242.89207031 119.0625 243.9296875 C122 246 122 246 124.375 247.97265625 C127.72618853 250.56085097 131.29170937 252.53388714 135 254.5625 C136.39618128 255.33400608 137.79202261 256.10612773 139.1875 256.87890625 C139.84427734 257.24145508 140.50105469 257.60400391 141.17773438 257.97753906 C142.74917641 258.85926457 144.29881451 259.77964553 145.84375 260.70703125 C149.7319788 263.03855975 153.54716328 264.23665656 158 265 C158 265.66 158 266.32 158 267 C161.89911121 269.14451117 166.05816502 270.49040566 170.25 271.9375 C174.54616296 273.42932923 178.83505373 274.92584069 183.0859375 276.54296875 C206.55913541 285.388652 233.83436473 290.99775646 259 290 C259 289.01 259 288.02 259 287 C259.01160156 286.34902344 259.02320313 285.69804688 259.03515625 285.02734375 C259.2048203 280.88317649 259.2048203 280.88317649 258 277 C258.165 276.236875 258.33 275.47375 258.5 274.6875 C259.04064844 271.78151461 258.72966066 269.83756923 258 267 C258.66 267 259.32 267 260 267 C259.88140625 266.32453125 259.7628125 265.6490625 259.640625 264.953125 C259.44726562 263.61507812 259.44726562 263.61507812 259.25 262.25 C259.04117188 260.92742187 259.04117188 260.92742187 258.828125 259.578125 C259 257 259 257 260.4140625 254.66015625 C264.3027843 252.16362035 267.6438758 252.76628848 272.125 253.1875 C272.94871094 253.24486328 273.77242187 253.30222656 274.62109375 253.36132812 C280.63857384 253.81928692 280.63857384 253.81928692 283 255 C283 255.66 283 256.32 283 257 C283.66 257 284.32 257 285 257 C284.67 257.99 284.34 258.98 284 260 C283.91641042 262.21089945 283.89268236 264.42426078 283.90234375 266.63671875 C283.90717773 268.58481445 283.90717773 268.58481445 283.91210938 270.57226562 C283.92046469 271.94401108 283.92892963 273.31575587 283.9375 274.6875 C283.94251665 276.07096195 283.94707927 277.45442563 283.95117188 278.83789062 C283.96297471 282.22530395 283.97943981 285.61263033 284 289 C293.74380452 291.05036279 303.32473985 289.94369065 313 288 C315.82443776 287.49365822 318.65021751 286.9955783 321.4765625 286.5 C324.11024789 286.03314377 324.11024789 286.03314377 327 285 C329.56861412 284.46712705 332.14453388 283.984581 334.72265625 283.5 C337.01643557 283.09386677 337.01643557 283.09386677 339 282 C340.010625 281.87625 341.02125 281.7525 342.0625 281.625 C345.81036121 281.0301014 349.03016857 280.07590556 352.58984375 278.82421875 C355.96846648 277.66880644 359.39895277 276.71172279 362.8359375 275.74609375 C365.25067304 275.01575979 365.25067304 275.01575979 368 273 C369.99541868 272.31974363 371.99617991 271.65509503 374 271 C375.23353231 270.46835019 376.4627296 269.92653508 377.6875 269.375 C381 268 381 268 384 268 C384.226875 267.360625 384.45375 266.72125 384.6875 266.0625 C386 264 386 264 388.4375 263.3125 C389.283125 263.209375 390.12875 263.10625 391 263 C391.99 262.67 392.98 262.34 394 262 C394.33 261.34 394.66 260.68 395 260 C398.5709191 258.05222594 402.22178748 256.49139968 406 255 C406.680625 254.649375 407.36125 254.29875 408.0625 253.9375 C410 253 410 253 412.1875 252.5625 C412.785625 252.376875 413.38375 252.19125 414 252 C414.33 251.01 414.66 250.02 415 249 C416.8125 247.9375 416.8125 247.9375 419 247 C419.7425 246.62875 420.485 246.2575 421.25 245.875 C421.8275 245.58625 422.405 245.2975 423 245 C423 244.34 423 243.68 423 243 C424.093125 242.566875 425.18625 242.13375 426.3125 241.6875 C429.96788178 240.12196275 432.19148933 238.61702134 434 235 C435.64363134 234.27840576 437.31050386 233.60648579 439 233 C439 232.34 439 231.68 439 231 C439.99 231 440.98 231 442 231 C442.33 230.01 442.66 229.02 443 228 C443.639375 227.855625 444.27875 227.71125 444.9375 227.5625 C445.618125 227.376875 446.29875 227.19125 447 227 C447.6837045 225.67532254 448.34964186 224.34136367 449 223 C450.33333333 222.33333333 451.66666667 221.66666667 453 221 C453.33 220.34 453.66 219.68 454 219 C455.26066301 216.47867397 456.47035275 216.10672067 459 215 C459.66 214.34 460.32 213.68 461 213 C463 211 463 211 465 210 C465 209.34 465 208.68 465 208 C465.66 208 466.32 208 467 208 C467.33 207.34 467.66 206.68 468 206 C468.474375 205.54625 468.94875 205.0925 469.4375 204.625 C471.09739778 203.0940816 471.09739778 203.0940816 471.8125 201.0625 C473 199 473 199 476.125 196.9375 C477.548125 195.9784375 477.548125 195.9784375 479 195 C479 194.01 479 193.02 479 192 C479.598125 191.814375 480.19625 191.62875 480.8125 191.4375 C484.0108802 189.3357073 484.55906895 186.48225004 486 183 C487.29355827 181.62804426 488.62298702 180.28817344 490 179 C490.69748583 177.68252676 491.36959957 176.35085807 492 175 C493.13584663 173.86415337 494.2911137 172.74527552 495.5 171.6875 C497.99205731 168.88393552 498.82925786 165.51222642 500 162 C500.66 162 501.32 162 502 162 C504.01659036 158.11086145 505.61504195 154.15487415 507 150 C507.66 150 508.32 150 509 150 C509.268125 149.154375 509.53625 148.30875 509.8125 147.4375 C513.11111111 137.88888889 513.11111111 137.88888889 516 135 C516.35412344 133.67203709 516.68521554 132.33783393 517 131 C517.63270867 129.65022151 518.30062468 128.31647119 519 127 C519.37125 126.2575 519.7425 125.515 520.125 124.75 C520.41375 124.1725 520.7025 123.595 521 123 C521.66 123 522.32 123 523 123 C523.03738281 122.43152344 523.07476563 121.86304688 523.11328125 121.27734375 C523.6391917 115.10047394 524.98914776 110.46313442 528.125 105.0625 C529.50636424 101.80642714 529.64902549 98.50974514 530 95 C530.66 95 531.32 95 532 95 C532.06058594 94.40832031 532.12117187 93.81664062 532.18359375 93.20703125 C532.62012371 89.09021792 533.08671346 85.04455467 534 81 C534.66 81 535.32 81 536 81 C535.67 78.69 535.34 76.38 535 74 C535.33 74 535.66 74 536 74 C536.13277344 72.97519531 536.26554688 71.95039063 536.40234375 70.89453125 C536.58064088 69.5338426 536.75903123 68.17316615 536.9375 66.8125 C537.02451172 66.13896484 537.11152344 65.46542969 537.20117188 64.77148438 C537.67859431 61.14661031 538.28334621 57.58326897 539 54 C539.21404118 52.23217837 539.4008173 50.46087691 539.5625 48.6875 C539.64628906 47.80449219 539.73007812 46.92148437 539.81640625 46.01171875 C540.0407673 42.33124283 540.0276635 38.68714897 540 35 C538.82642944 34.96241577 538.82642944 34.96241577 537.62915039 34.92407227 C534.10675051 34.80850212 530.5846444 34.68560051 527.0625 34.5625 C525.83080078 34.52318359 524.59910156 34.48386719 523.33007812 34.44335938 C521.5753418 34.38051758 521.5753418 34.38051758 519.78515625 34.31640625 C518.70113525 34.27974854 517.61711426 34.24309082 516.50024414 34.20532227 C514 34 514 34 513 33 C512.67 33.33 512.34 33.66 512 34 C510.00041636 34.04080783 507.99954746 34.04254356 506 34 C506 33.01 506 32.02 506 31 C505.34 31 504.68 31 504 31 C502.53684591 24.4158066 501.84748117 16.4575565 504 10 C515.98403293 8.71188898 527.96380629 8.89973695 540 9 C539.94199219 7.32744141 539.94199219 7.32744141 539.8828125 5.62109375 C540 2 540 2 541.875 0.0625 C550.20099478 -2.76833822 558.85957956 -0.70108319 567 2 C567.99 2.66 568.98 3.32 570 4 C570 4.66 570 5.32 570 6 C570.66 6 571.32 6 572 6 C572 6.99 572 7.98 572 9 C572.99 9 573.98 9 575 9 C576.0625 10.8125 576.0625 10.8125 577 13 C576.67 13.99 576.34 14.98 576 16 C576.99 16.33 577.98 16.66 579 17 C579 21.29 579 25.58 579 30 C581.1965625 29.87625 581.1965625 29.87625 583.4375 29.75 C596.78815965 29.73272877 611.65129675 34.15903343 623 41 C624.07636719 41.62777344 625.15273438 42.25554687 626.26171875 42.90234375 C627.39222656 43.57394531 628.52273438 44.24554688 629.6875 44.9375 C630.26822266 45.27201172 630.84894531 45.60652344 631.44726562 45.95117188 C634.77420416 47.947335 636.51025347 49.4261521 638 53 C639.65438613 53.69658363 641.32254318 54.36096883 643 55 C645.71588535 57.33867905 646.85660573 58.56981718 648 62 C649.6459651 63.68711423 651.31237149 65.3545622 653 67 C653.33 67.66 653.66 68.32 654 69 C653.67 69.66 653.34 70.32 653 71 C653.66 71 654.32 71 655 71 C655 71.99 655 72.98 655 74 C655.66 74.33 656.32 74.66 657 75 C656.67 75.66 656.34 76.32 656 77 C656.99 77 657.98 77 659 77 C662.87708193 85.10662585 664.3319936 93.03617282 664 102 C664.66 102 665.32 102 666 102 C667.00243353 106.88686345 666.81444274 111.08665611 666.5 116.0625 C666.45230469 116.82111328 666.40460937 117.57972656 666.35546875 118.36132812 C666.2372565 120.24090288 666.11866358 122.12045369 666 124 C665.34 124 664.68 124 664 124 C663.8240431 129.17467948 663.8240431 129.17467948 664.5625 134.25 C665.11110164 136.44440658 664.68325879 137.87430598 664 140 C663.34 140 662.68 140 662 140 C662.185625 140.928125 662.37125 141.85625 662.5625 142.8125 C663 146 663 146 662 149 C661.34 149 660.68 149 660 149 C659.67 151.31 659.34 153.62 659 156 C658.34 156 657.68 156 657 156 C656.79503906 156.62648438 656.59007812 157.25296875 656.37890625 157.8984375 C655.97478516 159.12433594 655.97478516 159.12433594 655.5625 160.375 C655.29566406 161.18710937 655.02882813 161.99921875 654.75390625 162.8359375 C654 165 654 165 653 167 C652.34 167 651.68 167 651 167 C650.855625 167.61875 650.71125 168.2375 650.5625 168.875 C650 171 650 171 649 173 C648.01 173 647.02 173 646 173 C645.67 174.65 645.34 176.3 645 178 C643.35 178.33 641.7 178.66 640 179 C640.33 179.99 640.66 180.98 641 182 C638 184 638 184 635 185 C635.33 185.99 635.66 186.98 636 188 C631.25 191 631.25 191 629 191 C629 191.99 629 192.98 629 194 C628.01 194 627.02 194 626 194 C625.34 195.32 624.68 196.64 624 198 C623.34 198 622.68 198 622 198 C621.319375 198.7425 621.319375 198.7425 620.625 199.5 C619 201 619 201 615 201 C615 201.99 615 202.98 615 204 C613.68 204 612.36 204 611 204 C610.67 204.99 610.34 205.98 610 207 C607.890625 208.3515625 607.890625 208.3515625 605.25 209.625 C604.38890625 210.05039062 603.5278125 210.47578125 602.640625 210.9140625 C600 212 600 212 597.234375 212.5234375 C596.12835937 212.75933594 596.12835937 212.75933594 595 213 C594.67 213.66 594.34 214.32 594 215 C592.02 215 590.04 215 588 215 C588 215.66 588 216.32 588 217 C584.64808052 217.98697159 581.29310737 218.96314756 577.9375 219.9375 C576.99455078 220.21529297 576.05160156 220.49308594 575.08007812 220.77929688 C570.06427623 222.22985979 565.21245952 223.55443019 560 224 C559.67 223.67 559.34 223.34 559 223 C558.34 223.66 557.68 224.32 557 225 C555.33391013 225.04384447 553.66619446 225.0396713 552 225 C551.06779633 225.24205421 551.06779633 225.24205421 550.11676025 225.48899841 C547.83447907 226.03995798 545.85267028 226.12026629 543.50683594 226.11352539 C542.18591949 226.11341209 542.18591949 226.11341209 540.83831787 226.11329651 C539.89651672 226.10813522 538.95471558 226.10297394 537.984375 226.09765625 C536.52792572 226.09553383 536.52792572 226.09553383 535.04205322 226.09336853 C531.94467065 226.08777663 528.84736068 226.07522559 525.75 226.0625 C523.64843854 226.05748395 521.54687596 226.05292123 519.4453125 226.04882812 C514.29684708 226.03780985 509.14843584 226.02055074 504 226 C504 226.66 504 227.32 504 228 C503.43410156 228.19335938 502.86820313 228.38671875 502.28515625 228.5859375 C501.55167969 228.84632813 500.81820312 229.10671875 500.0625 229.375 C499.33160156 229.63023437 498.60070312 229.88546875 497.84765625 230.1484375 C495.81317884 230.85271413 495.81317884 230.85271413 495 233 C494.360625 233.0825 493.72125 233.165 493.0625 233.25 C492.381875 233.4975 491.70125 233.745 491 234 C490.29373761 235.98636298 489.63106429 237.98848259 489 240 C487 242.375 487 242.375 485 244 C484.34 244 483.68 244 483 244 C482.67 244.99 482.34 245.98 482 247 C480.2578125 248.7890625 480.2578125 248.7890625 478.125 250.625 C477.42632813 251.23601562 476.72765625 251.84703125 476.0078125 252.4765625 C474 254 474 254 471 255 C470.38125 255.804375 469.7625 256.60875 469.125 257.4375 C466.85319667 260.17702754 465.34957646 260.9765183 462 262 C462 262.66 462 263.32 462 264 C459.4385343 266.29648649 458.52032428 267 455 267 C454.67 267.99 454.34 268.98 454 270 C452.02 270.33 450.04 270.66 448 271 C448 271.99 448 272.98 448 274 C445.46815512 276.35723489 444.52809907 277 441 277 C440.67 277.66 440.34 278.32 440 279 C438 279.66666667 436 280.33333333 434 281 C433.67 281.99 433.34 282.98 433 284 C431.02 284.33 429.04 284.66 427 285 C426.67 285.99 426.34 286.98 426 288 C422.78833455 289.54406993 419.59447519 290.7838272 416.25 292 C413.93340315 293.0295986 412.64451979 294.09581919 411 296 C410.01 295.67 409.02 295.34 408 295 C407.34 295.66 406.68 296.32 406 297 C405.01 297.33 404.02 297.66 403 298 C402.67 298.66 402.34 299.32 402 300 C401.34 300 400.68 300 400 300 C400 300.66 400 301.32 400 302 C399.19175781 302.25394531 398.38351562 302.50789063 397.55078125 302.76953125 C396.48214844 303.11371094 395.41351562 303.45789063 394.3125 303.8125 C393.25675781 304.14894531 392.20101563 304.48539063 391.11328125 304.83203125 C387.98416211 305.89710617 387.98416211 305.89710617 385.3125 307.625 C382.39841964 309.35769643 380.3310663 309.23239997 377 309 C377 309.66 377 310.32 377 311 C374.29120665 312.35439668 371.99066732 312.06501451 369 312 C368.67 312.66 368.34 313.32 368 314 C367.34 313.67 366.68 313.34 366 313 C366 313.66 366 314.32 366 315 C365.24074219 315.12117188 364.48148438 315.24234375 363.69921875 315.3671875 C362.70535156 315.53476562 361.71148438 315.70234375 360.6875 315.875 C359.70136719 316.03742188 358.71523438 316.19984375 357.69921875 316.3671875 C354.79940173 316.88085454 354.79940173 316.88085454 352 319 C349.984375 319.5625 349.984375 319.5625 347.75 320 C343.77014714 320.82052161 339.90560693 321.87338262 336 323 C332.57102389 323.87717994 330.37878813 324.12626271 327 323 C326.67 323.66 326.34 324.32 326 325 C323.49609375 325.6328125 323.49609375 325.6328125 320.4375 326.125 C319.42558594 326.29257812 318.41367187 326.46015625 317.37109375 326.6328125 C316.58863281 326.75398438 315.80617188 326.87515625 315 327 C323.38274602 327.53005654 331.40407608 326.34121594 339.64916992 324.97924805 C340.52549072 324.84043213 341.40181152 324.70161621 342.3046875 324.55859375 C343.08827637 324.42767334 343.87186523 324.29675293 344.67919922 324.16186523 C347.29392194 323.97950029 349.46219205 324.38478234 352 325 C352 324.34 352 323.68 352 323 C352.66386719 322.93941406 353.32773437 322.87882812 354.01171875 322.81640625 C361.72975584 322.31902812 361.72975584 322.31902812 369 320 C370.95683059 319.76783366 372.91372689 319.53619455 374.87109375 319.30859375 C378.01351338 318.85308705 380.96032627 317.91190212 384 317 C386.05935522 316.44649741 388.12215873 315.90573012 390.1875 315.375 C391.69376953 314.98441406 391.69376953 314.98441406 393.23046875 314.5859375 C396 314 396 314 400 314 C400 313.34 400 312.68 400 312 C400.598125 311.855625 401.19625 311.71125 401.8125 311.5625 C403.56150404 311.1127561 405.28677023 310.57107659 407 310 C407.66 310.33 408.32 310.66 409 311 C409 310.34 409 309.68 409 309 C409.86882812 308.74605469 410.73765625 308.49210937 411.6328125 308.23046875 C412.78523438 307.88628906 413.93765625 307.54210937 415.125 307.1875 C416.26195312 306.85105469 417.39890625 306.51460937 418.5703125 306.16796875 C421.90087757 305.03375582 424.87826353 303.61034821 428 302 C429.33333333 301.66666667 430.66666667 301.33333333 432 301 C432.66 300.34 433.32 299.68 434 299 C435.91796875 298.98828125 435.91796875 298.98828125 438.1875 299.3125 C439.38246094 299.47492188 439.38246094 299.47492188 440.6015625 299.640625 C441.39304687 299.75921875 442.18453125 299.8778125 443 300 C444.06347656 300.14695312 444.06347656 300.14695312 445.1484375 300.296875 C446.76700902 300.52149309 448.38374462 300.75928111 450 301 C450 301.66 450 302.32 450 303 C451.85625 303.309375 451.85625 303.309375 453.75 303.625 C459.91128229 304.98872331 465.68556255 307.60945793 471 311 C471.33 311.99 471.66 312.98 472 314 C472.99 314.33 473.98 314.66 475 315 C475 315.99 475 316.98 475 318 C475.66 318.33 476.32 318.66 477 319 C475.82844676 323.39332463 474.92342849 325.62216455 471 328 C470.01 328.66 469.02 329.32 468 330 C467.01 330 466.02 330 465 330 C464.67 330.99 464.34 331.98 464 333 C461.63671875 334.1328125 461.63671875 334.1328125 458.6875 335.125 C457.72199219 335.45757813 456.75648438 335.79015625 455.76171875 336.1328125 C449.39548434 338.13182811 449.39548434 338.13182811 446 337 C446 337.66 446 338.32 446 339 C443.60545158 340.19727421 442.28755521 340.03659186 439.625 339.9375 C433.60844921 339.85833486 427.89202453 340.86613961 422 342 C421.67 342.99 421.34 343.98 421 345 C420.0925 344.95875 419.185 344.9175 418.25 344.875 C415.13358279 344.75528724 415.13358279 344.75528724 413.1875 345.98046875 C410.31579888 347.31888659 407.91182723 347.31617407 404.75 347.4375 C399.53943235 347.73203363 394.66329102 348.40584068 389.5625 349.5 C381.80107398 351.13245562 374.11806577 351.41252108 366.20703125 351.65625 C361.3984502 351.81568571 356.79186362 352.04295005 352.0625 353 C346.5063033 354.09912803 340.99972077 354.31269526 335.35546875 354.5234375 C334.30659485 354.56455658 333.25772095 354.60567566 332.17706299 354.64804077 C319.53816247 355.12254947 306.89543076 355.39722483 294.25 355.625 C293.02219818 355.64779022 291.79439636 355.67058044 290.52938843 355.69406128 C273.88345219 355.99335456 257.3714822 355.95602678 240.74365234 355.10986328 C236.20355352 354.92806541 231.66774852 354.96290602 227.125 355 C219.69642553 355.05214559 212.29694386 354.88756634 204.875 354.5625 C203.45985107 354.50352539 203.45985107 354.50352539 202.01611328 354.44335938 C201.14196777 354.40146484 200.26782227 354.35957031 199.3671875 354.31640625 C198.59487793 354.27974854 197.82256836 354.24309082 197.02685547 354.20532227 C195 354 195 354 192 353 C189.87797646 352.81585746 187.75188983 352.67753047 185.625 352.5625 C171.58053423 351.71415332 157.5895147 350.27001999 143.625 348.5625 C142.19027344 348.39741943 142.19027344 348.39741943 140.7265625 348.22900391 C135.25990375 347.53305321 131.00096774 346.27201326 126 344 C123.95926901 344.03291502 121.91827183 344.07076913 119.87890625 344.15234375 C115.82646372 343.93789971 112.00587628 343.05050308 108.0625 342.125 C107.30404785 341.95105713 106.5455957 341.77711426 105.76416016 341.59790039 C100.25672843 340.25672843 100.25672843 340.25672843 98 338 C96.05848638 337.61596877 96.05848638 337.61596877 93.9375 337.5 C92.638125 337.335 91.33875 337.17 90 337 C89.67 336.34 89.34 335.68 89 335 C86.66842508 334.65458149 84.33491639 334.32205743 82 334 C81.01 333.34 80.02 332.68 79 332 C79 331.34 79 330.68 79 330 C77.35 330 75.7 330 74 330 C73.505 328.515 73.505 328.515 73 327 C71.03327085 325.8499169 71.03327085 325.8499169 69 325 C68 324 68 324 67.875 320.1875 C67.90735124 318.7914197 67.94811287 317.39549078 68 316 C68.020625 315.2575 68.04125 314.515 68.0625 313.75 C70.55022491 309.10624684 77.29462344 307.46389493 82 306 C82.61875 305.649375 83.2375 305.29875 83.875 304.9375 C87.15638617 303.48982963 90.44043389 303.35595661 94 303 C94 302.34 94 301.68 94 301 C95.11375 300.855625 96.2275 300.71125 97.375 300.5625 C100.82142047 300.21627965 100.82142047 300.21627965 103 299 C103.66 299.33 104.32 299.66 105 300 C105.33 299.34 105.66 298.68 106 298 C108.7808068 297.38237128 111.50278964 296.87384779 114.3125 296.4375 C115.8504522 296.18737433 117.38821945 295.9361082 118.92578125 295.68359375 C119.95312378 295.52201782 119.95312378 295.52201782 121.0012207 295.35717773 C123.03014468 294.99461321 125.00676182 294.52221781 127 294 C126.14993914 291.73283571 126.14993914 291.73283571 123.5 291.0625 C122.675 290.711875 121.85 290.36125 121 290 C120.67 289.01 120.34 288.02 120 287 C119.01 287 118.02 287 117 287 C117 286.34 117 285.68 117 285 C116.17242187 284.93554688 115.34484375 284.87109375 114.4921875 284.8046875 C109.99446624 283.76829983 106.89781737 281.70601653 103.125 279.125 C102.43664062 278.67769531 101.74828125 278.23039062 101.0390625 277.76953125 C99.29850215 276.59879721 97.64084306 275.30682921 96 274 C96 273.01 96 272.02 96 271 C94.7625 270.938125 94.7625 270.938125 93.5 270.875 C88.88129096 269.72032274 85.33821584 267.40599687 82 264 C82 263.01 82 262.02 82 261 C81.28199219 260.92652344 80.56398438 260.85304688 79.82421875 260.77734375 C76.23237153 259.78871637 74.50720987 258.11044807 71.8125 255.5625 C70.95269531 254.75941406 70.09289062 253.95632813 69.20703125 253.12890625 C67.79284291 251.76477768 66.38938393 250.38938393 65 249 C63.19364754 247.50235443 61.37936426 246.01524205 59.55859375 244.53515625 C58 243 58 243 57 240 C55.6846659 239.29848848 54.34882408 238.63474075 53 238 C51.25 236.5 51.25 236.5 50 235 C50 234.34 50 233.68 50 233 C49.34 233 48.68 233 48 233 C48 232.01 48 231.02 48 230 C47.401875 229.9175 46.80375 229.835 46.1875 229.75 C43.37067727 228.78423221 42.52200868 227.51131433 41 225 C41 224.34 41 223.68 41 223 C40.401875 222.773125 39.80375 222.54625 39.1875 222.3125 C36.40651597 220.64390958 35.4358084 218.8716168 34 216 C34 215.34 34 214.68 34 214 C33.34 214 32.68 214 32 214 C32 213.34 32 212.68 32 212 C31.34 212 30.68 212 30 212 C28.4921875 210.35546875 28.4921875 210.35546875 26.875 208.1875 C26.33617187 207.47980469 25.79734375 206.77210938 25.2421875 206.04296875 C24 204 24 204 24 201 C23.01 200.67 22.02 200.34 21 200 C21 199.34 21 198.68 21 198 C20.34 197.67 19.68 197.34 19 197 C19 196.01 19 195.02 19 194 C18.01 193.67 17.02 193.34 16 193 C14.48429823 190.89598568 13.13473874 188.84387442 11.8125 186.625 C11.44447266 186.03460937 11.07644531 185.44421875 10.69726562 184.8359375 C8.98258691 182.01101227 8 180.36248948 8 177 C7.34 177 6.68 177 6 177 C5.68546875 176.35933594 5.3709375 175.71867188 5.046875 175.05859375 C3.02609435 170.97442564 1.00333289 166.92612529 -1.3125 163 C-3 160 -3 160 -3 158 C-3.66 157.67 -4.32 157.34 -5 157 C-6.81134648 153.15088872 -7.87627796 149.09355887 -9 145 C-9.66 145 -10.32 145 -11 145 C-11.26554687 144.10796875 -11.53109375 143.2159375 -11.8046875 142.296875 C-12.15789062 141.12640625 -12.51109375 139.9559375 -12.875 138.75 C-13.22304688 137.58984375 -13.57109375 136.4296875 -13.9296875 135.234375 C-14.87440789 132.11005865 -14.87440789 132.11005865 -16.1328125 129.765625 C-17 128 -17 128 -17 125 C-17.66 124.67 -18.32 124.34 -19 124 C-19.640625 122.015625 -19.640625 122.015625 -20.25 119.25 C-21.67591899 113.17339138 -23.33374889 107.18482399 -25.0625 101.1875 C-25.44873535 99.84510254 -25.44873535 99.84510254 -25.84277344 98.47558594 C-26.09188477 97.61094727 -26.34099609 96.74630859 -26.59765625 95.85546875 C-26.95754639 94.6012915 -26.95754639 94.6012915 -27.32470703 93.32177734 C-27.90406132 91.32985425 -28.50997535 89.34568971 -29.12109375 87.36328125 C-29.92939745 84.27017244 -30.40950079 81.26882212 -30.75830078 78.09375 C-31.18742467 74.37641012 -31.8352834 70.69249832 -32.4375 67 C-34.42987113 54.4534138 -36.06562595 42.00670257 -36.75 29.3125 C-36.80687988 28.36721436 -36.86375977 27.42192871 -36.92236328 26.44799805 C-37.13633883 21.79130274 -37.24547772 18.22774926 -35 14 C-34.731875 13.195625 -34.46375 12.39125 -34.1875 11.5625 C-31.98551256 6.81084289 -30.2228052 3.81776498 -25.25 1.98828125 C-22.1787415 1.20127126 -19.11969554 0.56229492 -16 0 C-14.783125 -0.2475 -13.56625 -0.495 -12.3125 -0.75 C-8.17375366 -1.06235821 -4.0494676 -0.99933213 0 0 Z M0 7 C1 9 1 9 1 9 Z M-33 10 C-32 12 -32 12 -32 12 Z M576 65 C576 66.98 576 68.96 576 71 C575.34 71 574.68 71 574 71 C574 69.35 574 67.7 574 66 C573.67 66 573.34 66 573 66 C572.18446131 69.62461639 571.98028189 72.66131579 572.5 76.3125 C572.7475 78.1378125 572.7475 78.1378125 573 80 C572.67 80.33 572.34 80.66 572 81 C571.92794489 82.68608966 571.91613932 84.37500659 571.9375 86.0625 C571.94652344 86.98160156 571.95554687 87.90070313 571.96484375 88.84765625 C571.97644531 89.55792969 571.98804688 90.26820313 572 91 C571.34 91 570.68 91 570 91 C570 91.66 570 92.32 570 93 C569.01 93.495 569.01 93.495 568 94 C568.20625 94.70125 568.4125 95.4025 568.625 96.125 C569.16383755 100.25608785 567.94681479 103.36937453 565.875 106.9375 C564.59371405 109.95767402 564.87550938 112.76324398 565 116 C564.34 116 563.68 116 563 116 C562.95101562 116.63808594 562.90203125 117.27617188 562.8515625 117.93359375 C562.77679687 118.75988281 562.70203125 119.58617187 562.625 120.4375 C562.55539062 121.26121094 562.48578125 122.08492187 562.4140625 122.93359375 C562.27742187 123.61550781 562.14078125 124.29742188 562 125 C561.01 125.495 561.01 125.495 560 126 C559.690625 127.093125 559.38125 128.18625 559.0625 129.3125 C558 133 558 133 556.4375 135.0625 C554.54679353 137.6108435 554.50721245 139.89332374 554 143 C553.04906703 144.69514137 552.04892238 146.36368108 551 148 C549.91282681 150.55805456 548.94982809 153.13797275 548 155.75 C547 158 547 158 545 159 C544.34227572 162.02934491 544.34227572 162.02934491 544 165 C543.34 165 542.68 165 542 165 C540.515 169.95 540.515 169.95 539 175 C537.68 175 536.36 175 535 175 C534.34 176.093125 533.68 177.18625 533 178.3125 C532.62875 178.92738281 532.2575 179.54226563 531.875 180.17578125 C530.78376001 182.11361926 530.78376001 182.11361926 531 185 C530.01 185.495 530.01 185.495 529 186 C529.66 186.33 530.32 186.66 531 187 C531 190 531 190 530 192 C535.75455199 192.26765358 541.15553753 191.43538685 546.83203125 190.5078125 C549.42860736 190.09159191 552.01320182 189.73681883 554.625 189.4375 C557.98457388 189.11161249 557.98457388 189.11161249 561 188 C561 187.34 561 186.68 561 186 C561.886875 186.020625 562.77375 186.04125 563.6875 186.0625 C566.62169631 186.00713781 569.15493696 185.6694266 572 185 C572 184.34 572 183.68 572 183 C573.65 183 575.3 183 577 183 C577 182.01 577 181.02 577 180 C578.65 180.33 580.3 180.66 582 181 C582 180.34 582 179.68 582 179 C582.67546875 178.81824219 583.3509375 178.63648438 584.046875 178.44921875 C584.93890625 178.19785156 585.8309375 177.94648437 586.75 177.6875 C587.63171875 177.44386719 588.5134375 177.20023438 589.421875 176.94921875 C592.08680667 175.96803936 593.8135844 174.78679762 596 173 C599 171 599 171 601 170.1875 C603.22003893 169.09068348 603.22003893 169.09068348 604.4375 166.5 C606.31748297 163.49202725 607.72526537 163.12030395 611 162 C611.33 161.34 611.66 160.68 612 160 C612.66 159.34 613.32 158.68 614 158 C614.28875 157.34 614.5775 156.68 614.875 156 C616 154 616 154 618.0625 153 C619.0215625 152.505 619.0215625 152.505 620 152 C620.60061233 150.09821215 620.60061233 150.09821215 621 148 C621.96113866 146.63838689 622.95884159 145.30144802 624 144 C624.33 143.34 624.66 142.68 625 142 C625.66 141.34 626.32 140.68 627 140 C627.16687448 137.41645782 627.16687448 137.41645782 627 135 C627.66 135 628.32 135 629 135 C631.21345579 128.35963263 631.21913292 122.29231861 631.25 115.3125 C631.270625 114.16587891 631.29125 113.01925781 631.3125 111.83789062 C631.3443783 104.87646642 630.61564358 99.46339294 628 93 C627.34 93 626.68 93 626 93 C625.5978125 91.3603125 625.5978125 91.3603125 625.1875 89.6875 C623.93293482 85.67458308 623.93293482 85.67458308 621 83 C620.34 83 619.68 83 619 83 C619 82.34 619 81.68 619 81 C616.19332184 77.88146871 613.74071933 75.81002548 610 74 C609.46375 73.34 608.9275 72.68 608.375 72 C604.74744333 68.94521543 600.60346831 68.66767861 596 68 C596.66 67.34 597.32 66.68 598 66 C595.14839609 65.18565857 592.63373869 64.88118758 589.671875 64.90234375 C588.47304688 64.90717773 588.47304688 64.90717773 587.25 64.91210938 C586.425 64.92048828 585.6 64.92886719 584.75 64.9375 C583.90953125 64.94201172 583.0690625 64.94652344 582.203125 64.95117188 C580.13538599 64.96292039 578.06768376 64.98085478 576 65 Z M650 65 C651 67 651 67 651 67 Z M4 71 C4 72.65 4 74.3 4 76 C4.33 76 4.66 76 5 76 C5 74.35 5 72.7 5 71 C4.67 71 4.34 71 4 71 Z M5 76 C6 78 6 78 6 78 Z M6 81 C7 83 7 83 7 83 Z M570 81 C570 82.65 570 84.3 570 86 C570.33 86 570.66 86 571 86 C571 84.35 571 82.7 571 81 C570.67 81 570.34 81 570 81 Z M569 86 C569 87.65 569 89.3 569 91 C569.33 91 569.66 91 570 91 C570 89.35 570 87.7 570 86 C569.67 86 569.34 86 569 86 Z M567 95 C568 98 568 98 568 98 Z M566 98 C567 102 567 102 567 102 Z M11 100 C12 102 12 102 12 102 Z M567 102 C568 104 568 104 568 104 Z M563 111 C564 113 564 113 564 113 Z M562 113 C563 116 563 116 563 116 Z M560 120 C561 122 561 122 561 122 Z M559 122 C560 125 560 125 560 125 Z M556 132 C557 134 557 134 557 134 Z M553 138 C554 140 554 140 554 140 Z M552 140 C553 144 553 144 553 144 Z M660 142 C661 146 661 146 661 146 Z M659 146 C660 149 660 149 660 149 Z M657 152 C658 154 658 154 658 154 Z M372 309 C376 310 376 310 376 310 Z M349 316 C353 317 353 317 353 317 Z M337 319 C337 319.33 337 319.66 337 320 C338.98 320 340.96 320 343 320 C343 319.67 343 319.34 343 319 C341.02 319 339.04 319 337 319 Z M92 335 C96 336 96 336 96 336 Z M440 337 C440 337.33 440 337.66 440 338 C441.65 338 443.3 338 445 338 C445 337.67 445 337.34 445 337 C443.35 337 441.7 337 440 337 Z M104 338 C108 339 108 339 108 339 Z M110 340 C110 340.33 110 340.66 110 341 C111.98 341 113.96 341 116 341 C116 340.67 116 340.34 116 340 C114.02 340 112.04 340 110 340 Z M117 341 C121 342 121 342 121 342 Z M132 344 C132 344.33 132 344.66 132 345 C134.31 345 136.62 345 139 345 C139 344.67 139 344.34 139 344 C136.69 344 134.38 344 132 344 Z M404 344 C404 344.33 404 344.66 404 345 C406.97 345 409.94 345 413 345 C413 344.67 413 344.34 413 344 C410.03 344 407.06 344 404 344 Z M139 345 C139 345.33 139 345.66 139 346 C140.98 346 142.96 346 145 346 C145 345.67 145 345.34 145 345 C143.02 345 141.04 345 139 345 Z M398 345 C398 345.33 398 345.66 398 346 C399.98 346 401.96 346 404 346 C404 345.67 404 345.34 404 345 C402.02 345 400.04 345 398 345 Z M145 346 C145 346.33 145 346.66 145 347 C147.31 347 149.62 347 152 347 C152 346.67 152 346.34 152 346 C149.69 346 147.38 346 145 346 Z M349 350 C349 350.33 349 350.66 349 351 C351.97 351 354.94 351 358 351 C358 350.67 358 350.34 358 350 C355.03 350 352.06 350 349 350 Z M194 351 C194 351.33 194 351.66 194 352 C201.59 352 209.18 352 217 352 C217 351.67 217 351.34 217 351 C209.41 351 201.82 351 194 351 Z M329 351 C329 351.33 329 351.66 329 352 C335.6 352 342.2 352 349 352 C349 351.67 349 351.34 349 351 C342.4 351 335.8 351 329 351 Z M218 352 C218 352.33 218 352.66 218 353 C220.31 353 222.62 353 225 353 C225 352.67 225 352.34 225 352 C222.69 352 220.38 352 218 352 Z M232 352 C236 353 236 353 236 353 Z M313 352 C313 352.33 313 352.66 313 353 C318.28 353 323.56 353 329 353 C329 352.67 329 352.34 329 352 C323.72 352 318.44 352 313 352 Z M254 353 C254 353.33 254 353.66 254 354 C258.29 354 262.58 354 267 354 C267 353.67 267 353.34 267 353 C262.71 353 258.42 353 254 353 Z M268 353 C268 353.33 268 353.66 268 354 C271.96 354 275.92 354 280 354 C280 353.67 280 353.34 280 353 C276.04 353 272.08 353 268 353 Z M281 353 C281 353.33 281 353.66 281 354 C283.97 354 286.94 354 290 354 C290 353.67 290 353.34 290 353 C287.03 353 284.06 353 281 353 Z " fill="#2E0F02" transform="translate(328,423)"/>
<path d="M0 0 C0.99 0 1.98 0 3 0 C3 0.66 3 1.32 3 2 C3.85335938 1.835 4.70671875 1.67 5.5859375 1.5 C9.00479179 0.99929823 12.17412243 0.93534656 15.625 1 C19.90327439 1.12332974 19.90327439 1.12332974 24.09765625 0.47265625 C26.48762686 -0.12115575 28.37551317 0.12664026 30.8125 0.4375 C33.78377907 0.78067404 36.56251043 1 39.5625 1 C54.25102804 1 69.52074873 4.19487633 83.875 7.0625 C85.09473511 7.30577026 85.09473511 7.30577026 86.33911133 7.55395508 C89.83247624 8.27215913 93.23647637 9.06774456 96.66796875 10.05078125 C99.92187221 10.9777432 103.09753382 11.59961206 106.4375 12.125 C108.01337891 12.37636719 108.01337891 12.37636719 109.62109375 12.6328125 C110.40613281 12.75398437 111.19117188 12.87515625 112 13 C112 13.66 112 14.32 112 15 C112.969375 15.0825 113.93875 15.165 114.9375 15.25 C118.85340616 15.80829184 122.06377913 17.22610743 125.625 18.8984375 C127.99414928 19.99728634 130.38317425 20.97978504 132.8125 21.9375 C148.97138492 28.34576696 148.97138492 28.34576696 155.73046875 31.83203125 C160.03598425 34.04777847 164.39091365 36.16815902 168.73046875 38.31640625 C171.56944452 39.77829222 174.28280752 41.32649735 177 43 C178.11568359 43.65548828 178.11568359 43.65548828 179.25390625 44.32421875 C191.23855899 51.40145023 204.08411982 59.08411982 214 69 C214.86625 69.495 215.7325 69.99 216.625 70.5 C217.40875 70.995 218.1925 71.49 219 72 C219 72.66 219 73.32 219 74 C219.54785156 74.23074219 220.09570312 74.46148437 220.66015625 74.69921875 C223.66213914 76.36810072 225.9173198 78.48107116 228.4375 80.8125 C229.36433594 81.66457031 230.29117187 82.51664062 231.24609375 83.39453125 C233.87892221 85.88544838 236.45032176 88.42430463 239 91 C239.763125 91.763125 240.52625 92.52625 241.3125 93.3125 C242.199375 94.199375 243.08625 95.08625 244 96 C244.8971875 96.86238281 244.8971875 96.86238281 245.8125 97.7421875 C250.31539925 102.1219606 254.30787403 106.71626671 258.171875 111.66796875 C259.71592053 113.63761658 261.30236249 115.54393559 262.9375 117.4375 C265 120 265 120 266 123 C266.515625 123.515625 267.03125 124.03125 267.5625 124.5625 C268.036875 125.036875 268.51125 125.51125 269 126 C269 126.66 269 127.32 269 128 C269.99 128.33 270.98 128.66 272 129 C273.32421875 130.64453125 273.32421875 130.64453125 274.6875 132.8125 C276.38918959 135.48058121 278.09099789 138.13206941 279.88671875 140.73828125 C284.83460668 147.9219535 288.98110778 155.3230056 292.97802734 163.0546875 C294.01669214 165.03177329 295.09009665 166.98588149 296.17578125 168.9375 C299.57359682 175.07725047 302.54428735 180.91207369 304.296875 187.75390625 C305.06136108 190.19601455 306.12201349 192.12134325 307.4375 194.3125 C310.12920492 198.89001016 311.56309742 203.57271133 313.0234375 208.66015625 C313.97176802 211.90344662 315.05970797 215.0654074 316.1875 218.25 C318.14128603 224.0575136 320.00009716 229.99970853 318 236 C318.99 236 319.98 236 321 236 C323.10280862 242.70270246 324.36256886 250.03470045 323 257 C318.13882476 260.81655721 312.13906218 262.37206437 306 262 C306 261.34 306 260.68 306 260 C305.113125 260.04125 304.22625 260.0825 303.3125 260.125 C300.01006278 260.00037973 298.00475265 259.25198027 295 258 C294.01 258.495 294.01 258.495 293 259 C288.82454419 256.18585718 285.84419831 253.69017936 284.54296875 248.70703125 C284.18054077 247.38300293 284.18054077 247.38300293 283.81079102 246.03222656 C283.54322998 245.0315918 283.27566895 244.03095703 283 243 C282.31027273 240.61426361 281.6145585 238.23025298 280.9140625 235.84765625 C280.7285231 235.21647888 280.5429837 234.58530151 280.3518219 233.93499756 C279.96936304 232.63402581 279.58645928 231.33318478 279.203125 230.0324707 C278.81847513 228.72176979 278.4366262 227.41024355 278.05761719 226.09790039 C275.64015736 217.73804039 272.82417623 209.82893856 269 202 C268.45214844 200.79988281 267.90429688 199.59976563 267.33984375 198.36328125 C266.87707031 197.35652344 266.41429687 196.34976563 265.9375 195.3125 C265.47214844 194.29800781 265.00679687 193.28351563 264.52734375 192.23828125 C260.91926083 184.58840723 256.90388248 177.33267403 252.53515625 170.09179688 C250.37435422 166.47196386 248.40351647 162.99765647 247 159 C246.34 159 245.68 159 245 159 C244.48050781 158.01902344 243.96101562 157.03804687 243.42578125 156.02734375 C240.82050776 151.47298213 237.5576147 147.56698923 234.1875 143.5625 C233.30094727 142.49418945 233.30094727 142.49418945 232.39648438 141.40429688 C225.4434553 132.98119564 225.4434553 132.98119564 218 125 C218 124.01 218 123.02 218 122 C217.01 121.67 216.02 121.34 215 121 C215 120.34 215 119.68 215 119 C213.68 118.34 212.36 117.68 211 117 C211 116.34 211 115.68 211 115 C210.01 115 209.02 115 208 115 C206.27421931 113.39462261 204.61586608 111.71596398 203 110 C195.75661493 103.11664506 195.75661493 103.11664506 187.875 97 C185 95 185 95 184 93 C183.34 92.67 182.68 92.34 182 92 C182 91.34 182 90.68 182 90 C181.2575 89.896875 180.515 89.79375 179.75 89.6875 C176.71998611 88.92999653 175.45665195 87.88635775 173 86 C170.10265637 84.18309038 167.1869637 82.39913367 164.265625 80.62109375 C163.51796875 80.08613281 162.7703125 79.55117187 162 79 C162 78.34 162 77.68 162 77 C161.319375 76.9175 160.63875 76.835 159.9375 76.75 C156.1253093 75.77667472 153.35929671 74.04192545 150 72 C150 71.34 150 70.68 150 70 C149.0925 69.896875 148.185 69.79375 147.25 69.6875 C144 69 144 69 142.1875 67.625 C139.3851821 65.54327813 136.55075032 64.78986608 133.2421875 63.75390625 C130.34062863 62.77829499 127.70939418 61.41627423 125 60 C123.34089996 59.31471955 121.67667436 58.64108137 120 58 C120 57.01 120 56.02 120 55 C119.67 55.66 119.34 56.32 119 57 C116.62789705 56.28836912 114.25630054 55.57547006 111.88671875 54.85546875 C109.9801527 54.29046474 108.065868 53.75081294 106.14453125 53.23828125 C104.80455078 52.87283203 104.80455078 52.87283203 103.4375 52.5 C102.61121094 52.2834375 101.78492188 52.066875 100.93359375 51.84375 C100.29550781 51.5653125 99.65742187 51.286875 99 51 C98.67 50.01 98.34 49.02 98 48 C96.845 48.0825 95.69 48.165 94.5 48.25 C87.12298832 48.28529671 80.06076626 45.92145442 73 44 C71.66778476 43.66222574 70.33513058 43.32606017 69 43 C69 42.34 69 41.68 69 41 C67.948125 41.17402344 66.89625 41.34804687 65.8125 41.52734375 C59.86798041 42.2704087 53.96628822 41.85978928 48 41.5625 C46.84371094 41.51029297 45.68742187 41.45808594 44.49609375 41.40429688 C41.66372647 41.27555291 38.83179765 41.14063319 36 41 C35.97494385 41.71019287 35.9498877 42.42038574 35.92407227 43.15209961 C35.80701528 46.41403464 35.68479254 49.67575722 35.5625 52.9375 C35.50352539 54.61295898 35.50352539 54.61295898 35.44335938 56.32226562 C35.20419096 62.59583708 34.78608221 68.77079389 34 75 C33.01 75 32.02 75 31 75 C31.33 75.66 31.66 76.32 32 77 C28.75068073 77.17455021 25.50256552 77.28091753 22.25 77.375 C21.32960938 77.42527344 20.40921875 77.47554688 19.4609375 77.52734375 C16.84962491 77.58411142 14.55385673 77.55395741 12 77 C9.37493706 74.27456701 8.12446147 72.59536974 7.828125 68.796875 C8.03695312 67.78367188 8.03695312 67.78367188 8.25 66.75 C8.81765897 63.33246128 9.1148875 60.09358581 9.125 56.625 C9.12886719 55.40683594 9.12886719 55.40683594 9.1328125 54.1640625 C9.08198565 51.8167556 9.08198565 51.8167556 8 49 C8.66 49 9.32 49 10 49 C9.855625 48.37351563 9.71125 47.74703125 9.5625 47.1015625 C9.376875 46.28429687 9.19125 45.46703125 9 44.625 C8.814375 43.81289062 8.62875 43.00078125 8.4375 42.1640625 C8 40 8 40 8 38 C4.52015976 38.30528033 1.04128417 38.62042917 -2.4375 38.9375 C-3.92733398 39.06801758 -3.92733398 39.06801758 -5.44726562 39.20117188 C-6.39150391 39.28818359 -7.33574219 39.37519531 -8.30859375 39.46484375 C-9.18314209 39.543396 -10.05769043 39.62194824 -10.95874023 39.70288086 C-12.99014456 39.79085048 -12.99014456 39.79085048 -14 41 C-15.62884622 41.20360578 -17.25771734 41.40701458 -18.88671875 41.609375 C-22.08080605 42.19977931 -25.04703343 43.33778535 -28.08203125 44.4765625 C-30 45 -30 45 -32 44 C-33.65339379 44.70859734 -35.30504005 45.42169334 -36.9453125 46.16015625 C-43.4846617 48.83308415 -49.09412878 49.25561295 -56 48 C-56.33 48.99 -56.66 49.98 -57 51 C-59.77733089 52.80102025 -62.10918176 53.24842631 -65.375 53.4375 C-70.4359566 53.91118559 -74.15102589 55.43117349 -78.0625 58.75 C-80 60 -80 60 -82.75 59.6875 C-83.4925 59.460625 -84.235 59.23375 -85 59 C-85.04769531 59.60714844 -85.09539062 60.21429688 -85.14453125 60.83984375 C-86 63 -86 63 -88.51171875 64.37890625 C-89.55972656 64.76949219 -90.60773438 65.16007812 -91.6875 65.5625 C-95.91935101 67.19593418 -99.96030766 68.9283629 -104 71 C-104.99 71.33 -105.98 71.66 -107 72 C-108.41911295 72.94511189 -109.81135363 73.93085248 -111.1875 74.9375 C-115.81382882 78.21960053 -120.52502894 81.33518828 -125.3125 84.375 C-125.99401123 84.81577881 -126.67552246 85.25655762 -127.37768555 85.71069336 C-130.97139699 87.97349876 -133.76122615 89.2987902 -138 90 C-138.433125 90.721875 -138.86625 91.44375 -139.3125 92.1875 C-141.3093108 95.515518 -143.44101232 96.91923074 -146.56640625 99.1328125 C-149.52163226 101.40022507 -152.18031238 103.93628923 -154.875 106.5 C-159.32043449 110.71265589 -163.75468037 113.95524397 -169.234375 116.78125 C-170.10835937 117.38453125 -170.10835937 117.38453125 -171 118 C-171 118.99 -171 119.98 -171 121 C-171.99 121.66 -172.98 122.32 -174 123 C-174.680625 124.175625 -174.680625 124.175625 -175.375 125.375 C-177.97391117 129.57324113 -181.53155726 132.01402545 -186 134 C-186 134.99 -186 135.98 -186 137 C-187.375 138.5 -187.375 138.5 -189 140 C-191.10232344 142.8684413 -191.10232344 142.8684413 -192 146 C-192.99854334 147.00145454 -193.99882284 148.00117855 -195 149 C-196.22356675 150.80946174 -197.4083982 152.6454606 -198.5625 154.5 C-200.34757529 157.35612046 -202.13159148 160.19738721 -204 163 C-204.99 163 -205.98 163 -207 163 C-206.67 163.99 -206.34 164.98 -206 166 C-207.2578125 167.8671875 -207.2578125 167.8671875 -209 170 C-212.98918969 176.82304028 -216.52220582 183.90591541 -220 191 C-220.66 191 -221.32 191 -222 191 C-222.0928125 192.175625 -222.0928125 192.175625 -222.1875 193.375 C-223.127764 197.570024 -224.82342403 200.86232042 -226.84375 204.6328125 C-227.90867375 206.81302802 -228.47383993 208.64801952 -229 211 C-231.20648975 217.9716789 -233.63933752 224.86210697 -236.16796875 231.72265625 C-236.80697692 233.4716786 -237.41115277 235.23345831 -238 237 C-238.66 237.33 -239.32 237.66 -240 238 C-242.11596899 242.81970715 -242.17786056 246.84204369 -242 252 C-243.11375 252.5775 -244.2275 253.155 -245.375 253.75 C-248.33192143 255.42260202 -249.92315721 256.64982242 -251 260 C-252.98 260 -254.96 260 -257 260 C-257 260.66 -257 261.32 -257 262 C-257.7425 261.814375 -258.485 261.62875 -259.25 261.4375 C-261.87927649 260.82763344 -261.87927649 260.82763344 -263.921875 261.515625 C-267.48071136 262.34512821 -270.64975165 261.30019905 -274 260 C-276.98968003 257.5469292 -278.82496735 255.6585061 -279.23828125 251.7421875 C-279.47391612 242.63924036 -277.43384637 234.67974128 -275 226 C-274.37460178 223.62836001 -273.91780831 221.43639982 -273.5625 219 C-273.03966698 216.21155722 -272.34562665 214.45378977 -271 212 C-269.23782467 208.14524146 -268.36582666 204.32216055 -267.5625 200.18359375 C-266.97825501 197.91558716 -266.11669694 196.05193062 -265 194 C-264.34 194 -263.68 194 -263 194 C-263.226875 193.4225 -263.45375 192.845 -263.6875 192.25 C-264 190 -264 190 -262.6328125 188.13671875 C-262.09398437 187.43160156 -261.55515625 186.72648438 -261 186 C-260.34287156 184.5435888 -259.74103771 183.06134869 -259.1875 181.5625 C-257.53760719 177.29443753 -255.75867196 173.10816054 -253.875 168.9375 C-253.37742187 167.83277344 -252.87984375 166.72804688 -252.3671875 165.58984375 C-251 163 -251 163 -249 162 C-247.99083967 160.23408113 -247.99083967 160.23408113 -247 158 C-242.93361754 149.66744172 -238.26061555 141.63637741 -233 134 C-232.57332031 133.33871094 -232.14664063 132.67742187 -231.70703125 131.99609375 C-227.83071635 126.02054129 -223.50650105 120.50997295 -219 115 C-218.30390625 114.11054688 -217.6078125 113.22109375 -216.890625 112.3046875 C-215.07686291 110.09369652 -213.2889873 108.67859069 -211 107 C-210.01 105.515 -210.01 105.515 -209 104 C-204.098003 98.0276943 -198.70650443 92.52376578 -193.25 87.0625 C-192.49589844 86.29615234 -191.74179687 85.52980469 -190.96484375 84.74023438 C-189.87623047 83.6487207 -189.87623047 83.6487207 -188.765625 82.53515625 C-188.11368164 81.879104 -187.46173828 81.22305176 -186.79003906 80.54711914 C-185 79 -185 79 -182 78 C-181.21625 77.21625 -180.4325 76.4325 -179.625 75.625 C-177.17802343 73.17802343 -174.96664367 71.71753055 -172 70 C-170.97980427 69.0206121 -169.97850195 68.02104551 -169 67 C-167.948125 66.2265625 -167.948125 66.2265625 -166.875 65.4375 C-164.88034058 64.12545138 -164.88034058 64.12545138 -164 62 C-163.34 62 -162.68 62 -162 62 C-161.67 61.01 -161.34 60.02 -161 59 C-158.33916031 57.00603743 -155.38757675 55 -152 55 C-151.773125 54.38125 -151.54625 53.7625 -151.3125 53.125 C-149.24703397 49.78091213 -146.33464111 49.36071381 -142.6875 48.375 C-142.130625 48.25125 -141.57375 48.1275 -141 48 C-141 47.34 -141 46.68 -141 46 C-139.9275 45.7525 -138.855 45.505 -137.75 45.25 C-133.95343574 43.98447858 -132.56329257 42.94303961 -130 40 C-129.34 39.67 -128.68 39.34 -128 39 C-127.071875 38.505 -127.071875 38.505 -126.125 38 C-124 37 -124 37 -121.8125 36.5 C-121.214375 36.335 -120.61625 36.17 -120 36 C-119.67 35.34 -119.34 34.68 -119 34 C-116.4375 33.375 -116.4375 33.375 -114 33 C-114 32.34 -114 31.68 -114 31 C-109.25645564 28.77343836 -105.27749285 27.53851968 -100 27 C-100 26.34 -100 25.68 -100 25 C-98.88625 24.566875 -98.88625 24.566875 -97.75 24.125 C-95.10650179 23.09774166 -95.10650179 23.09774166 -93.109375 21.9921875 C-90.2256812 20.63578338 -87.33265924 20.15968807 -84.21875 19.5625 C-81.921048 18.979984 -80.09822978 18.08718761 -78 17 C-74.95286216 16.07497601 -71.91708296 15.20961896 -68.8125 14.5 C-66.921025 14.04103603 -66.921025 14.04103603 -65 13 C-61.5217529 11.26087645 -57.66334892 10.6779038 -53.875 9.875 C-52.57175781 9.59269531 -52.57175781 9.59269531 -51.2421875 9.3046875 C-49 9 -49 9 -47 10 C-47 9.34 -47 8.68 -47 8 C-46.13117188 7.86722656 -45.26234375 7.73445312 -44.3671875 7.59765625 C-43.21476563 7.42105469 -42.06234375 7.24445313 -40.875 7.0625 C-39.73804688 6.88847656 -38.60109375 6.71445313 -37.4296875 6.53515625 C-36.29789063 6.35855469 -35.16609375 6.18195313 -34 6 C-32.39511719 5.75056641 -32.39511719 5.75056641 -30.7578125 5.49609375 C-27.92432697 5.05437156 -27.92432697 5.05437156 -25 4 C-23.62918868 3.80181041 -22.25314137 3.63830809 -20.875 3.5 C-18.46615738 3.2536411 -16.05998257 3.00729788 -13.65625 2.71484375 C-9.06375601 2.15650972 -4.62621153 1.90156997 0 2 C0 1.34 0 0.68 0 0 Z M35 38 C35 38.33 35 38.66 35 39 C38.63 39 42.26 39 46 39 C46 38.67 46 38.34 46 38 C42.37 38 38.74 38 35 38 Z M46 39 C46 39.33 46 39.66 46 40 C50.62 40 55.24 40 60 40 C60 39.67 60 39.34 60 39 C55.38 39 50.76 39 46 39 Z M32 41 C32 46.61 32 52.22 32 58 C32.33 58 32.66 58 33 58 C33 52.39 33 46.78 33 41 C32.67 41 32.34 41 32 41 Z M-41 44 C-37 45 -37 45 -37 45 Z M-45 45 C-41 46 -41 46 -41 46 Z M84 45 C84 45.33 84 45.66 84 46 C85.98 46 87.96 46 90 46 C90 45.67 90 45.34 90 45 C88.02 45 86.04 45 84 45 Z M-90 61 C-90.66 61.66 -91.32 62.32 -92 63 C-90.68 62.67 -89.36 62.34 -88 62 C-88.66 61.67 -89.32 61.34 -90 61 Z M32 62 C32 64.31 32 66.62 32 69 C32.33 69 32.66 69 33 69 C33 66.69 33 64.38 33 62 C32.67 62 32.34 62 32 62 Z M16 74 C16 74.33 16 74.66 16 75 C18.97 75 21.94 75 25 75 C25 74.67 25 74.34 25 74 C22.03 74 19.06 74 16 74 Z M-127 81 C-127.33 81.66 -127.66 82.32 -128 83 C-127.01 82.67 -126.02 82.34 -125 82 C-125.66 81.67 -126.32 81.34 -127 81 Z M-130 83 C-130.33 83.66 -130.66 84.32 -131 85 C-130.01 84.67 -129.02 84.34 -128 84 C-128.66 83.67 -129.32 83.34 -130 83 Z M-158.7265625 104.53125 C-159.66628906 105.50578125 -159.66628906 105.50578125 -160.625 106.5 C-161.25664062 107.1496875 -161.88828125 107.799375 -162.5390625 108.46875 C-163.02117187 108.9740625 -163.50328125 109.479375 -164 110 C-160.99204833 110.34509128 -160.99204833 110.34509128 -159.39453125 108.46875 C-158.87246094 107.8190625 -158.35039062 107.169375 -157.8125 106.5 C-157.28269531 105.8503125 -156.75289063 105.200625 -156.20703125 104.53125 C-155.80871094 104.0259375 -155.41039062 103.520625 -155 103 C-157.13524093 102.77882569 -157.13524093 102.77882569 -158.7265625 104.53125 Z M-178 124 C-178.66 125.32 -179.32 126.64 -180 128 C-178.68 126.68 -177.36 125.36 -176 124 C-176.66 124 -177.32 124 -178 124 Z M-237 141 C-236 143 -236 143 -236 143 Z M-199 150 C-198 152 -198 152 -198 152 Z M-201 153 C-200 155 -200 155 -200 155 Z M-204 157 C-203 159 -203 159 -203 159 Z M290 161 C291 163 291 163 291 163 Z M292 165 C293 167 293 167 293 167 Z M-215 175 C-215.33 176.32 -215.66 177.64 -216 179 C-215.34 177.68 -214.68 176.36 -214 175 C-214.33 175 -214.66 175 -215 175 Z M298 177 C299 179 299 179 299 179 Z M299 179 C300 181 300 181 300 181 Z M-218 180 C-217 182 -217 182 -217 182 Z M300 181 C301 184 301 184 301 184 Z M-220 184 C-219 186 -219 186 -219 186 Z M301 184 C302 187 302 187 302 187 Z M-221 186 C-220 188 -220 188 -220 188 Z M305 193 C306 195 306 195 306 195 Z M306 196 C307 198 307 198 307 198 Z M-266 198 C-265 200 -265 200 -265 200 Z M307 198 C308 201 308 201 308 201 Z M-227 199 C-226 201 -226 201 -226 201 Z M-267 201 C-266 203 -266 203 -266 203 Z M308 201 C309 204 309 204 309 204 Z M-229 202 C-228 205 -228 205 -228 205 Z M311 210 C312 213 312 213 312 213 Z M-233 212 C-232 214 -232 214 -232 214 Z M-234 214 C-234 215.65 -234 217.3 -234 219 C-233.67 219 -233.34 219 -233 219 C-233 217.35 -233 215.7 -233 214 C-233.33 214 -233.66 214 -234 214 Z M312 214 C313 216 313 216 313 216 Z M313 216 C314 218 314 218 314 218 Z M314 218 C315 221 315 221 315 221 Z M-235 219 C-234 221 -234 221 -234 221 Z M-236 221 C-235 225 -235 225 -235 225 Z M315 221 C315 222.65 315 224.3 315 226 C315.33 226 315.66 226 316 226 C316 224.35 316 222.7 316 221 C315.67 221 315.34 221 315 221 Z M-237 225 C-236 227 -236 227 -236 227 Z M-240 234 C-239 236 -239 236 -239 236 Z M319 237 C319 238.32 319 239.64 319 241 C319.66 240.67 320.32 240.34 321 240 C320.34 239.01 319.68 238.02 319 237 Z M320 242 C320 244.31 320 246.62 320 249 C320.33 249 320.66 249 321 249 C321 246.69 321 244.38 321 242 C320.67 242 320.34 242 320 242 Z M320 252 C320 253.65 320 255.3 320 257 C320.33 257 320.66 257 321 257 C321 255.35 321 253.7 321 252 C320.67 252 320.34 252 320 252 Z M290 254 C290 254.66 290 255.32 290 256 C290.66 255.67 291.32 255.34 292 255 C291.34 254.67 290.68 254.34 290 254 Z " fill="#A77130" transform="translate(578,137)"/>
<path d="M0 0 C0 0.66 0 1.32 0 2 C0.598125 2.185625 1.19625 2.37125 1.8125 2.5625 C5.12827882 4.74144037 5.80708103 7.29567267 7 11 C6.6875 13.9375 6.6875 13.9375 6 16 C6.33 16 6.66 16 7 16 C6.56182081 21.47723991 5.30351659 24.62769863 2 29 C1.2575 30.1446875 1.2575 30.1446875 0.5 31.3125 C-1.26041389 33.29296562 -2.41307455 33.6431827 -5 34 C-5.33 35.32 -5.66 36.64 -6 38 C-6.66 38 -7.32 38 -8 38 C-8.268125 38.5775 -8.53625 39.155 -8.8125 39.75 C-10.02929189 42.05550043 -11.30333879 44.02056192 -13 46 C-13.66 46 -14.32 46 -15 46 C-15.33 46.99 -15.66 47.98 -16 49 C-16.66 49.33 -17.32 49.66 -18 50 C-18 50.66 -18 51.32 -18 52 C-18.61875 52.061875 -19.2375 52.12375 -19.875 52.1875 C-20.57625 52.455625 -21.2775 52.72375 -22 53 C-22.70211894 54.65204456 -23.36971413 56.31923769 -24 58 C-25.485 58.495 -25.485 58.495 -27 59 C-28.01821201 60.99078987 -29.01536195 62.99239249 -30 65 C-31.50241627 66.84234119 -33.06627359 68.63629341 -34.6875 70.375 C-35.89986328 71.68597656 -35.89986328 71.68597656 -37.13671875 73.0234375 C-38.05904297 74.00183594 -38.05904297 74.00183594 -39 75 C-39.66 74.67 -40.32 74.34 -41 74 C-41 74.99 -41 75.98 -41 77 C-41.66 77 -42.32 77 -43 77 C-43.2475 77.61875 -43.495 78.2375 -43.75 78.875 C-45.20628639 81.35068687 -46.37812506 81.95125002 -49 83 C-49 83.66 -49 84.32 -49 85 C-49.99 85.66 -50.98 86.32 -52 87 C-52.33 87.99 -52.66 88.98 -53 90 C-53.99 90 -54.98 90 -56 90 C-56.433125 91.134375 -56.86625 92.26875 -57.3125 93.4375 C-57.869375 94.613125 -58.42625 95.78875 -59 97 C-59.99 97.33 -60.98 97.66 -62 98 C-62 98.99 -62 99.98 -62 101 C-63.75 103.1875 -63.75 103.1875 -66 105 C-67.32 105 -68.64 105 -70 105 C-69.67 105.99 -69.34 106.98 -69 108 C-69.66 108 -70.32 108 -71 108 C-71.2475 108.7425 -71.495 109.485 -71.75 110.25 C-73.10465039 113.23023087 -74.5101541 114.89919252 -77 117 C-77.66 117 -78.32 117 -79 117 C-79.33 117.66 -79.66 118.32 -80 119 C-80.66 118.67 -81.32 118.34 -82 118 C-82.3403125 118.8353125 -82.3403125 118.8353125 -82.6875 119.6875 C-84 122 -84 122 -86.5625 124.4375 C-89.1927871 127.20267362 -89.41240575 128.37650214 -90 132 C-90.99 132.66 -91.98 133.32 -93 134 C-93.99100369 135.07494116 -94.94767495 136.18216595 -95.875 137.3125 C-98.89346228 140.91518078 -102.10152601 144.25340393 -105.5625 147.4375 C-107.16078701 149.08510086 -107.16078701 149.08510086 -108.6875 151.625 C-111.60629246 156.12243896 -115.16287535 160.26254093 -119 164 C-119.66 164 -120.32 164 -121 164 C-121.37125 165.1446875 -121.37125 165.1446875 -121.75 166.3125 C-123.15183926 169.32645441 -124.29268666 170.16858215 -127 172 C-127.66 172.66 -128.32 173.32 -129 174 C-131 176 -131 176 -133.1875 177.4375 C-135.5266085 179.45397285 -135.67504594 180.99417492 -136 184 C-135.236875 183.505 -134.47375 183.01 -133.6875 182.5 C-131 181 -131 181 -128 181 C-127.67 180.34 -127.34 179.68 -127 179 C-125.21852702 180.78147298 -125.662239 183.45879772 -125.5 185.875 C-125.27652749 189.18718188 -125.05207935 191.84376196 -124 195 C-125.19986557 200.78626762 -127.74111467 206.111672 -131 211 C-131.99 211.33 -132.98 211.66 -134 212 C-135.67548841 213.76614511 -135.67548841 213.76614511 -137.3125 215.875 C-140.24836924 219.35707747 -142.77845215 221.17705888 -147 223 C-148.73026102 224.47890069 -148.73026102 224.47890069 -150 226 C-153.82635788 229.82635788 -160.00106969 230.11764732 -165.25 230.1875 C-168.30636453 230.03468177 -171.04055519 229.7398612 -174 229 C-173.67 228.01 -173.34 227.02 -173 226 C-173.94875 226.2475 -174.8975 226.495 -175.875 226.75 C-181.81920167 227.62165483 -187.43657838 224.68863767 -192.30078125 221.484375 C-193.14189453 220.74960937 -193.14189453 220.74960937 -194 220 C-194 219.34 -194 218.68 -194 218 C-194.99 217.67 -195.98 217.34 -197 217 C-197.33 216.34 -197.66 215.68 -198 215 C-198.46277344 214.53851563 -198.92554688 214.07703125 -199.40234375 213.6015625 C-207.00787521 205.97743561 -208.03727756 196.64961543 -208.75390625 186.3828125 C-208.9278914 183.85450204 -208.9278914 183.85450204 -210 181 C-212.17465993 179.36547003 -212.17465993 179.36547003 -214.875 177.8125 C-219.88543862 174.73614261 -224.62092092 171.42542058 -229.33984375 167.921875 C-232.60390042 165.5637019 -235.98297511 163.42371574 -239.41796875 161.32421875 C-239.94003906 160.88722656 -240.46210937 160.45023438 -241 160 C-241 159.01 -241 158.02 -241 157 C-241.99 157.33 -242.98 157.66 -244 158 C-246.3125 156.8125 -246.3125 156.8125 -249 155 C-249.96550781 154.35675781 -250.93101562 153.71351563 -251.92578125 153.05078125 C-252.94027344 152.37402344 -253.95476563 151.69726562 -255 151 C-257.9893644 149.15330263 -260.98233631 147.31289375 -263.98046875 145.48046875 C-264.64691406 144.99191406 -265.31335938 144.50335938 -266 144 C-266 143.34 -266 142.68 -266 142 C-266.825 141.814375 -267.65 141.62875 -268.5 141.4375 C-272.53109078 139.78187343 -274.89839386 137.57282428 -278.07421875 134.66015625 C-280.52098053 132.55087886 -283.07938274 131.37440812 -286 130 C-287.95127102 128.8352666 -289.8876929 127.64546528 -291.8125 126.4375 C-292.76769531 125.83808594 -293.72289062 125.23867188 -294.70703125 124.62109375 C-297 123 -297 123 -298 121 C-299.175625 119.948125 -299.175625 119.948125 -300.375 118.875 C-304.38266208 114.48565581 -306.0439145 110.45921194 -305.9375 104.5 C-304.4856984 99.07994068 -302.93138329 94.47153012 -298.375 91 C-296 90 -296 90 -294 90 C-294 89.34 -294 88.68 -294 88 C-282.38479122 87.44689482 -276.10333557 90.57489037 -266.984375 97.7265625 C-263.58152718 100.31878427 -260.05457177 102.46757305 -256.359375 104.609375 C-253.2711154 106.42960748 -250.31957544 108.42520337 -247.3515625 110.43359375 C-244.74276537 112.17134732 -242.09352227 113.83541304 -239.4375 115.5 C-235.41381185 118.04216281 -231.6160934 120.75056977 -227.84765625 123.65234375 C-225.03400228 125.70458608 -222.05135576 127.32474586 -219 129 C-217.515 129.99 -217.515 129.99 -216 131 C-216 131.66 -216 132.32 -216 133 C-214.72382812 133.34804688 -214.72382812 133.34804688 -213.421875 133.703125 C-209.54291244 135.1732341 -206.52712358 137.27526021 -203.25 139.75 C-198.34646422 143.36343886 -193.39812831 146.64013743 -188.1171875 149.6875 C-186.1116741 150.9307703 -184.39729478 152.2606399 -182.625 153.8125 C-180.24029274 155.79975605 -179.02448153 156.65102136 -176 157 C-176.33 156.29875 -176.66 155.5975 -177 154.875 C-178.09044562 151.73996884 -178.15322643 149.29436818 -178 146 C-175.13236863 145.04412288 -173.7272674 144.94032007 -170.796875 145.11328125 C-169.98089844 145.14357422 -169.16492188 145.17386719 -168.32421875 145.20507812 C-166.62273784 145.27608074 -164.92195579 145.36689239 -163.22265625 145.47851562 C-158.45345113 145.61702472 -155.71556138 145.26 -152.015625 142.10546875 C-150.98805652 141.09250514 -149.97950145 140.05951365 -149 139 C-147.66666667 137.66666667 -146.33333333 136.33333333 -145 135 C-144.731875 134.38125 -144.46375 133.7625 -144.1875 133.125 C-142.62351214 130.32628488 -140.54152024 128.92163725 -138 127 C-136.00882485 125.23857583 -134.90240744 123.83027381 -133.5625 121.5 C-131.93420506 118.8947281 -130.50205864 117.72016531 -128 116 C-125.84454121 114.17615026 -125.04816913 113.13166229 -124.0625 110.4375 C-122.78368005 107.50373659 -121.81723335 107.27229893 -119 106 C-118.67 105.01 -118.34 104.02 -118 103 C-117.34 103 -116.68 103 -116 103 C-115.67 102.34 -115.34 101.68 -115 101 C-114.360625 100.38125 -113.72125 99.7625 -113.0625 99.125 C-110.95308347 97.18272689 -110.95308347 97.18272689 -110.0625 95 C-108.60122674 92.24936799 -106.43838167 90.90312716 -104 89 C-102.97971135 87.68212715 -101.98028616 86.34789347 -101 85 C-99.35353315 83.31337542 -97.68816933 81.64488294 -96 80 C-94.10755236 78.10755236 -93.03097666 76.47622407 -91.6875 74.1875 C-89.49078384 70.6186415 -87.09009596 67.85833877 -84 65 C-83.113125 64.071875 -82.22625 63.14375 -81.3125 62.1875 C-79 60 -79 60 -77 60 C-76.79375 59.278125 -76.5875 58.55625 -76.375 57.8125 C-74.59560757 54.17283366 -72.17714491 52.4639083 -69 50 C-66.82523666 48.07617089 -65.6492424 46.4455767 -64.0625 43.9375 C-62.04484731 41.06387344 -61.11588617 40.28933221 -58 39 C-57.67 38.34 -57.34 37.68 -57 37 C-56.01028914 35.65901149 -55.00896758 34.32656029 -54 33 C-53.53980469 32.35160156 -53.07960938 31.70320313 -52.60546875 31.03515625 C-49.431575 26.61968423 -46.27576603 23.34625168 -42 20 C-38.60747559 16.92552475 -36.0778537 13.44287306 -33.46484375 9.70703125 C-32 8 -32 8 -29 7 C-28.67 6.34 -28.34 5.68 -28 5 C-27.34 4.01 -26.68 3.02 -26 2 C-26 1.34 -26 0.68 -26 0 C-15.88248647 -4.26289449 -10.08308733 -4.06861419 0 0 Z M3 7 C4 10 4 10 4 10 Z M4 10 C5 13 5 13 5 13 Z M3 22 C4 24 4 24 4 24 Z M2 24 C1.34 25.32 0.68 26.64 0 28 C0.99 27.67 1.98 27.34 3 27 C2.67 26.01 2.34 25.02 2 24 Z M-34 65 C-33 67 -33 67 -33 67 Z M-76 112 C-76.33 112.66 -76.66 113.32 -77 114 C-76.34 114 -75.68 114 -75 114 C-75.33 113.34 -75.66 112.68 -76 112 Z M-97 134 C-96.67 134.66 -96.34 135.32 -96 136 C-95.67 135.34 -95.34 134.68 -95 134 C-95.66 134 -96.32 134 -97 134 Z M-176 158 C-174.515 158.99 -174.515 158.99 -173 160 C-173 159.34 -173 158.68 -173 158 C-173.99 158 -174.98 158 -176 158 Z M-120.625 160.5 C-121.07875 160.995 -121.5325 161.49 -122 162 C-121.67 162.66 -121.34 163.32 -121 164 C-119.68 162.35 -118.36 160.7 -117 159 C-119.12364481 158.77390663 -119.12364481 158.77390663 -120.625 160.5 Z M-127 194 C-127 195.65 -127 197.3 -127 199 C-126.67 199 -126.34 199 -126 199 C-126 197.35 -126 195.7 -126 194 C-126.33 194 -126.66 194 -127 194 Z M-128 199 C-127 201 -127 201 -127 201 Z M-130 203 C-129 206 -129 206 -129 206 Z M-171 227 C-171 227.33 -171 227.66 -171 228 C-167.04 228 -163.08 228 -159 228 C-159 227.67 -159 227.34 -159 227 C-162.96 227 -166.92 227 -171 227 Z " fill="#A77130" transform="translate(766,258)"/>
<path d="M0 0 C0.33 0.66 0.66 1.32 1 2 C2.13308594 1.89171875 2.13308594 1.89171875 3.2890625 1.78125 C14.52862894 0.83365189 25.72868836 0.90048421 37 1 C37 1.66 37 2.32 37 3 C37.85980469 2.9278125 38.71960938 2.855625 39.60546875 2.78125 C50.83576257 1.89948211 61.8156264 1.48347477 73 3 C73 2.34 73 1.68 73 1 C74.02955811 1.00523682 75.05911621 1.01047363 76.11987305 1.01586914 C97.7735827 1.11616181 119.36458253 0.97202975 141 0 C137.69641422 2.20239052 136.24537792 2.35201543 132.36328125 2.6328125 C131.22697266 2.71660156 130.09066406 2.80039062 128.91992188 2.88671875 C127.72947266 2.96535156 126.53902344 3.04398438 125.3125 3.125 C123.60223633 3.25455078 123.60223633 3.25455078 121.85742188 3.38671875 C115.06296596 3.86525505 108.31948566 4.05208695 101.50892639 4.00611877 C95.7882561 3.97563863 90.0777614 4.09706997 84.359375 4.25390625 C65.17034145 4.76830339 46.10879271 5.1731964 26.92578125 4.25390625 C21.32020292 3.9866288 15.73574992 3.95326126 10.125 4 C-0.60316405 4.08502752 -11.28976629 3.58303864 -22 3 C-22.33 2.34 -22.66 1.68 -23 1 C-15.41 0.67 -7.82 0.34 0 0 Z " fill="#040100" transform="translate(545,774)"/>
<path d="M0 0 C16.44072994 0.26752667 16.44072994 0.26752667 22.890625 1.23046875 C23.220625 1.89046875 23.550625 2.55046875 23.890625 3.23046875 C15.640625 2.90046875 7.390625 2.57046875 -1.109375 2.23046875 C-1.39711067 10.0524801 -1.39711067 10.0524801 -1.67749023 17.87475586 C-1.91417442 24.04005364 -2.33685936 30.10876917 -3.109375 36.23046875 C-3.769375 35.90046875 -4.429375 35.57046875 -5.109375 35.23046875 C-5.21195575 26.76185775 -5.16343528 18.31551728 -4.734375 9.85546875 C-4.70351807 9.12465088 -4.67266113 8.39383301 -4.64086914 7.64086914 C-4.2314204 0.46232186 -4.2314204 0.46232186 0 0 Z " fill="#83541F" transform="translate(615.109375,175.76953125)"/>
<path d="M0 0 C0.33 0.66 0.66 1.32 1 2 C2.42892578 1.89171875 2.42892578 1.89171875 3.88671875 1.78125 C5.14097656 1.6884375 6.39523437 1.595625 7.6875 1.5 C9.54955078 1.36078125 9.54955078 1.36078125 11.44921875 1.21875 C14.31499329 1.04220063 17.13099957 0.95611472 20 1 C20.495 1.99 20.495 1.99 21 3 C6.57078758 3.95899674 -7.5685274 3.92142456 -22 3 C-22.33 2.34 -22.66 1.68 -23 1 C-15.41 0.67 -7.82 0.34 0 0 Z " fill="#080200" transform="translate(545,774)"/>
<path d="M0 0 C3.81936528 1.55603771 6.26044438 3.95604931 9 7 C9 7.66 9 8.32 9 9 C9.598125 9.268125 10.19625 9.53625 10.8125 9.8125 C12.99847854 10.99917406 14.41332594 12.09599113 16 14 C16 14.66 16 15.32 16 16 C16.99 16.33 17.98 16.66 19 17 C19 17.66 19 18.32 19 19 C19.5775 19.268125 20.155 19.53625 20.75 19.8125 C23.05550043 21.02929189 25.02056192 22.30333879 27 24 C27 24.66 27 25.32 27 26 C27.66 26 28.32 26 29 26 C29.33 26.99 29.66 27.98 30 29 C25.6955674 27.28885519 22.64884097 24.16976773 19.3125 21.0625 C18.71888672 20.52431641 18.12527344 19.98613281 17.51367188 19.43164062 C13.12415436 15.37246308 13.12415436 15.37246308 12 12 C10.66782709 11.33101752 9.33427829 10.6647734 8 10 C5.859375 7.87109375 5.859375 7.87109375 3.75 5.4375 C3.04359375 4.63183594 2.3371875 3.82617188 1.609375 2.99609375 C0 1 0 1 0 0 Z " fill="#0B0501" transform="translate(396,624)"/>
<path d="M0 0 C0.33 0 0.66 0 1 0 C1.495 3.465 1.495 3.465 2 7 C-3.71881999 9.00350606 -8.42911607 9.1313282 -14.4375 8.6875 C-15.24509766 8.63916016 -16.05269531 8.59082031 -16.88476562 8.54101562 C-21.95423967 8.21830132 -26.96601157 7.6762074 -32 7 C-32 6.67 -32 6.34 -32 6 C-21.44 6 -10.88 6 0 6 C0 4.02 0 2.04 0 0 Z " fill="#050100" transform="translate(366,449)"/>
<path d="M0 0 C3.95436491 0.45738628 7.27602233 0.42640261 11.1875 -0.5 C11.1875 0.16 11.1875 0.82 11.1875 1.5 C14.8175 1.5 18.4475 1.5 22.1875 1.5 C22.1875 1.83 22.1875 2.16 22.1875 2.5 C11.6275 2.5 1.0675 2.5 -9.8125 2.5 C-6.60855581 -0.70394419 -4.24459706 -0.57377042 0 0 Z " fill="#5E3611" transform="translate(340.8125,431.5)"/>
<path d="M0 0 C0.33 0 0.66 0 1 0 C1 7.26 1 14.52 1 22 C-0.32 21.67 -1.64 21.34 -3 21 C-2.505 19.515 -2.505 19.515 -2 18 C-1.75144368 13.85243865 -1.75144368 13.85243865 -3 10 C-2.34 9.01 -1.68 8.02 -1 7 C-0.60612212 4.67612053 -0.26513915 2.34206251 0 0 Z " fill="#150700" transform="translate(589,690)"/>
<path d="M0 0 C3.5875213 1.33250791 6.8364623 2.830717 10 5 C10 5.66 10 6.32 10 7 C10.9075 7.2475 11.815 7.495 12.75 7.75 C16.10351489 9.03981342 17.67708236 10.31971042 20 13 C14.8542473 12.51040411 11.3409211 9.89636531 7.1875 7.0625 C6.49462891 6.60681641 5.80175781 6.15113281 5.08789062 5.68164062 C3.35109013 4.51293645 1.66992279 3.26241962 0 2 C0 1.34 0 0.68 0 0 Z " fill="#040100" transform="translate(424,695)"/>
<path d="M0 0 C-3.24578402 2.16385601 -5.65283567 2.7744171 -9.4375 3.625 C-10.57058594 3.88539063 -11.70367187 4.14578125 -12.87109375 4.4140625 C-16 5 -16 5 -20 5 C-19.67 4.01 -19.34 3.02 -19 2 C-16.95928485 1.66089006 -14.91737379 1.32897296 -12.875 1 C-11.73804688 0.814375 -10.60109375 0.62875 -9.4296875 0.4375 C-6.23862398 0.03043951 -3.21182209 -0.07809902 0 0 Z " fill="#090300" transform="translate(453,719)"/>
<path d="M0 0 C1.258125 0.12375 2.51625 0.2475 3.8125 0.375 C4.87404297 0.47941406 4.87404297 0.47941406 5.95703125 0.5859375 C8 1 8 1 11 3 C2.42 3 -6.16 3 -15 3 C-15 2.34 -15 1.68 -15 1 C-10.05 1 -5.1 1 0 1 C0 0.67 0 0.34 0 0 Z " fill="#80511E" transform="translate(600,137)"/>
<path d="M0 0 C0.33 0.99 0.66 1.98 1 3 C-0.28965176 4.37562854 -1.62689293 5.70766393 -3 7 C-3.66 7 -4.32 7 -5 7 C-5.33 7.99 -5.66 8.98 -6 10 C-7.84765625 11.82421875 -7.84765625 11.82421875 -10.0625 13.6875 C-10.79597656 14.31011719 -11.52945313 14.93273437 -12.28515625 15.57421875 C-13.13400391 16.27998047 -13.13400391 16.27998047 -14 17 C-14.66 16.34 -15.32 15.68 -16 15 C-15.27296875 14.38125 -15.27296875 14.38125 -14.53125 13.75 C-9.45749491 9.37876484 -4.67847866 4.79046352 0 0 Z " fill="#0B0602" transform="translate(816,660)"/>
<path d="M0 0 C0.66 0 1.32 0 2 0 C1.91878906 0.59167969 1.83757812 1.18335938 1.75390625 1.79296875 C1.54923667 4.35342691 1.49749709 6.47481729 2 9 C4.04133177 11.24086044 6.30969236 12.63425709 9 14 C7.68 14.33 6.36 14.66 5 15 C4.67 14.01 4.34 13.02 4 12 C2.03327085 10.8499169 2.03327085 10.8499169 0 10 C-1 9 -1 9 -1.1328125 7.1875 C-1.13023437 6.465625 -1.12765625 5.74375 -1.125 5 C-1.12757813 4.278125 -1.13015625 3.55625 -1.1328125 2.8125 C-1 1 -1 1 0 0 Z " fill="#020000" transform="translate(397,738)"/>
<path d="M0 0 C0.33 0 0.66 0 1 0 C1 4.95 1 9.9 1 15 C-3 11 -3 11 -3.171875 8.640625 C-3.03265625 7.85171875 -2.8934375 7.0628125 -2.75 6.25 C-2.62109375 5.45078125 -2.4921875 4.6515625 -2.359375 3.828125 C-2.24078125 3.22484375 -2.1221875 2.6215625 -2 2 C-1.34 2 -0.68 2 0 2 C0 1.34 0 0.68 0 0 Z " fill="#7E501D" transform="translate(589,198)"/>
<path d="M0 0 C0.66 0 1.32 0 2 0 C3.63429751 2.0944968 5.14167234 4.17782091 6.625 6.375 C7.04523438 6.97828125 7.46546875 7.5815625 7.8984375 8.203125 C11 12.73462865 11 12.73462865 11 15 C6.94993501 13.64997834 5.86912713 11.00333229 3.8125 7.5 C3.44447266 6.89285156 3.07644531 6.28570313 2.69726562 5.66015625 C0 1.16638161 0 1.16638161 0 0 Z " fill="#090401" transform="translate(336,602)"/>
<path d="M0 0 C-1 3 -1 3 -3.14453125 4.421875 C-4.02496094 4.86015625 -4.90539062 5.2984375 -5.8125 5.75 C-6.68519531 6.19859375 -7.55789063 6.6471875 -8.45703125 7.109375 C-11.19935744 8.06982104 -12.3313431 8.02018585 -15 7 C-12.87767021 5.82823482 -10.75242209 4.66245215 -8.625 3.5 C-7.72007812 2.99919922 -7.72007812 2.99919922 -6.796875 2.48828125 C-2.2265625 0 -2.2265625 0 0 0 Z " fill="#060300" transform="translate(939,627)"/>
<path d="M0 0 C3.81936528 1.55603771 6.26044438 3.95604931 9 7 C9 7.66 9 8.32 9 9 C9.99 9.33 10.98 9.66 12 10 C12 10.66 12 11.32 12 12 C8.35865951 10.49917723 6.31243814 8.39379438 3.75 5.4375 C3.04359375 4.63183594 2.3371875 3.82617188 1.609375 2.99609375 C0 1 0 1 0 0 Z " fill="#050200" transform="translate(396,624)"/>
<path d="M0 0 C3.465 1.485 3.465 1.485 7 3 C7 3.66 7 4.32 7 5 C7.61875 5.28875 8.2375 5.5775 8.875 5.875 C11 7 11 7 13 9 C7.71223057 8.66951441 3.75899378 5.51647805 0 2 C0 1.34 0 0.68 0 0 Z " fill="#070300" transform="translate(410,685)"/>
<path d="M0 0 C0.66 0 1.32 0 2 0 C2 2.64 2 5.28 2 8 C1.01 8 0.02 8 -1 8 C-1.04241723 5.66705225 -1.04092937 3.33297433 -1 1 C-0.67 0.67 -0.34 0.34 0 0 Z M-8 8 C-5.69 8 -3.38 8 -1 8 C-1 8.33 -1 8.66 -1 9 C-3.31 9 -5.62 9 -8 9 C-8 8.67 -8 8.34 -8 8 Z " fill="#1A0801" transform="translate(869,424)"/>
<path d="M0 0 C0.66 1.32 1.32 2.64 2 4 C-3.75 9 -3.75 9 -6 9 C-4.47291037 5.56404834 -2.40072955 2.88087546 0 0 Z " fill="#8E5C24" transform="translate(686,318)"/>
<path d="M0 0 C5.36668951 8.05003427 5.36668951 8.05003427 4.58203125 12.22265625 C4.38996094 12.80917969 4.19789063 13.39570312 4 14 C3.13116294 12.42466914 2.28040932 10.83935491 1.4375 9.25 C0.96183594 8.36828125 0.48617188 7.4865625 -0.00390625 6.578125 C-1.07998186 3.79298812 -1.06528748 2.73019786 0 0 Z " fill="#090300" transform="translate(313,550)"/>
<path d="M0 0 C0.33 0 0.66 0 1 0 C0.67 3.3 0.34 6.6 0 10 C-0.66 10 -1.32 10 -2 10 C-1.33333333 6.66666667 -0.66666667 3.33333333 0 0 Z " fill="#7B4D1C" transform="translate(338,375)"/>
<path d="M0 0 C2.97 0 5.94 0 9 0 C5.5647952 2.29013653 4.014669 2.17842973 0 2 C0 1.34 0 0.68 0 0 Z " fill="#845420" transform="translate(565,177)"/>
<path d="M0 0 C0.33 0 0.66 0 1 0 C1 2.64 1 5.28 1 8 C0.34 7.67 -0.32 7.34 -1 7 C-1.04254356 5.00045254 -1.04080783 2.99958364 -1 1 C-0.67 0.67 -0.34 0.34 0 0 Z " fill="#030100" transform="translate(993,548)"/>
<path d="M0 0 C0 3 0 3 -1.3125 4.38671875 C-2.875 5.59114583 -4.4375 6.79557292 -6 8 C-4.55746343 4.63408134 -2.66735273 2.48952921 0 0 Z " fill="#653F18" transform="translate(682,380)"/>
<path d="M0 0 C0.33 0 0.66 0 1 0 C1 3.3 1 6.6 1 10 C0.67 10 0.34 10 0 10 C0 6.7 0 3.4 0 0 Z " fill="#301002" transform="translate(641,439)"/>
<path d="M0 0 C-4.625 2.125 -4.625 2.125 -8 1 C-3.375 -1.125 -3.375 -1.125 0 0 Z " fill="#653C14" transform="translate(511,192)"/>
<path d="M0 0 C2.97 0 5.94 0 9 0 C9 0.33 9 0.66 9 1 C6.03 1 3.06 1 0 1 C0 0.67 0 0.34 0 0 Z " fill="#301002" transform="translate(594,675)"/>
<path d="M0 0 C0 3 0 3 -1 5 C-1.66 5 -2.32 5 -3 5 C-1.125 1.125 -1.125 1.125 0 0 Z " fill="#794B1A" transform="translate(634,434)"/>
<path d="M0 0 C1.98 0.495 1.98 0.495 4 1 C2.35 1.33 0.7 1.66 -1 2 C-0.67 1.34 -0.34 0.68 0 0 Z " fill="#000000" transform="translate(752,765)"/>
<path d="M0 0 C1.98 0 3.96 0 6 0 C4.02 0.99 4.02 0.99 2 2 C1.34 1.34 0.68 0.68 0 0 Z " fill="#0F0902" transform="translate(756,764)"/>
<path d="M0 0 C0.66 0 1.32 0 2 0 C1.67 1.32 1.34 2.64 1 4 C0.67 2.68 0.34 1.36 0 0 Z " fill="#0D0400" transform="translate(331,482)"/>
<path d="M0 0 C0.66 0.33 1.32 0.66 2 1 C0.35 1.66 -1.3 2.32 -3 3 C-2.01 2.01 -1.02 1.02 0 0 Z " fill="#633A14" transform="translate(623,479)"/>
<path d="M0 0 C0 0.99 0 1.98 0 3 C-0.99 3 -1.98 3 -3 3 C-2.01 2.01 -1.02 1.02 0 0 Z " fill="#6C4119" transform="translate(631,472)"/>
<path d="M0 0 C2.31 0 4.62 0 7 0 C7 0.33 7 0.66 7 1 C4.69 1 2.38 1 0 1 C0 0.67 0 0.34 0 0 Z " fill="#6B4014" transform="translate(578,176)"/>
<path d="M0 0 C0 0.99 0 1.98 0 3 C-0.99 3.495 -0.99 3.495 -2 4 C-1.34 2.68 -0.68 1.36 0 0 Z " fill="#6B4014" transform="translate(762,291)"/>
<path d="M0 0 C0.66 0.33 1.32 0.66 2 1 C0.02 1.99 0.02 1.99 -2 3 C-2 2.34 -2 1.68 -2 1 C-1.34 0.67 -0.68 0.34 0 0 Z " fill="#6E461A" transform="translate(409,254)"/>
<path d="M0 0 C0.66 0.33 1.32 0.66 2 1 C0.02 1.99 0.02 1.99 -2 3 C-1.34 2.01 -0.68 1.02 0 0 Z " fill="#6B4014" transform="translate(441,226)"/>
<path d="M0 0 C1.65 0 3.3 0 5 0 C5 0.33 5 0.66 5 1 C3.35 1 1.7 1 0 1 C0 0.67 0 0.34 0 0 Z " fill="#6B4014" transform="translate(833,650)"/>
<path d="M0 0 C0.66 0 1.32 0 2 0 C1.67 0.99 1.34 1.98 1 3 C0.67 2.01 0.34 1.02 0 0 Z " fill="#090300" transform="translate(992,522)"/>
<path d="M0 0 C1.65 0 3.3 0 5 0 C5 0.33 5 0.66 5 1 C3.35 1 1.7 1 0 1 C0 0.67 0 0.34 0 0 Z " fill="#301002" transform="translate(878,398)"/>
<path d="M0 0 C1.32 0.33 2.64 0.66 4 1 C3.01 1.495 3.01 1.495 2 2 C1.34 1.34 0.68 0.68 0 0 Z " fill="#603712" transform="translate(873,396)"/>
<path d="M0 0 C0 0.99 0 1.98 0 3 C-0.66 2.67 -1.32 2.34 -2 2 C-1.34 1.34 -0.68 0.68 0 0 Z " fill="#784B1C" transform="translate(331,392)"/>
<path d="M0 0 C1.65 0 3.3 0 5 0 C5 0.33 5 0.66 5 1 C3.35 1 1.7 1 0 1 C0 0.67 0 0.34 0 0 Z " fill="#905F26" transform="translate(594,137)"/>
<path d="M0 0 C4 1 4 1 4 1 Z " fill="#000000" transform="translate(862,649)"/>
<path d="M0 0 C0 3 0 3 0 3 Z " fill="#180801" transform="translate(823,593)"/>
<path d="M0 0 C4 1 4 1 4 1 Z " fill="#4D280B" transform="translate(588,485)"/>
<path d="M0 0 C0 3 0 3 0 3 Z " fill="#6B4014" transform="translate(633,469)"/>
<path d="M0 0 C1 4 1 4 1 4 Z " fill="#301002" transform="translate(290,455)"/>
<path d="M0 0 C0.99 0.495 0.99 0.495 2 1 C1.34 1.66 0.68 2.32 0 3 C0 2.01 0 1.02 0 0 Z " fill="#9A672A" transform="translate(628,382)"/>
<path d="M0 0 C0 3 0 3 0 3 Z " fill="#7A4D1B" transform="translate(740,316)"/>
<path d="M0 0 C0.99 0.33 1.98 0.66 3 1 C2.01 1 1.02 1 0 1 C0 0.67 0 0.34 0 0 Z " fill="#5D3512" transform="translate(574,176)"/>
<path d="M0 0 C0.99 0.495 0.99 0.495 2 1 C1.01 1.495 1.01 1.495 0 2 C0 1.34 0 0.68 0 0 Z " fill="#301002" transform="translate(749,667)"/>
<path d="M0 0 C0.99 0.495 0.99 0.495 2 1 C1.01 1.495 1.01 1.495 0 2 C0 1.34 0 0.68 0 0 Z " fill="#301002" transform="translate(789,634)"/>
<path d="M0 0 C0.99 0.495 0.99 0.495 2 1 C1.01 1.495 1.01 1.495 0 2 C0 1.34 0 0.68 0 0 Z " fill="#100500" transform="translate(797,626)"/>
<path d="M0 0 C0.66 0.66 1.32 1.32 2 2 C1.34 2 0.68 2 0 2 C0 1.34 0 0.68 0 0 Z " fill="#000000" transform="translate(338,516)"/>
<path d="M0 0 C0.99 0.495 0.99 0.495 2 1 C1.01 1.495 1.01 1.495 0 2 C0 1.34 0 0.68 0 0 Z " fill="#301002" transform="translate(619,393)"/>
<path d="M0 0 C0.33 0.66 0.66 1.32 1 2 C0.34 1.67 -0.32 1.34 -1 1 C-0.67 0.67 -0.34 0.34 0 0 Z " fill="#583112" transform="translate(684,378)"/>
<path d="M0 0 C0.99 0.495 0.99 0.495 2 1 C1.01 1.495 1.01 1.495 0 2 C0 1.34 0 0.68 0 0 Z " fill="#956228" transform="translate(651,357)"/>
<path d="M0 0 C0.33 0.66 0.66 1.32 1 2 C0.34 1.67 -0.32 1.34 -1 1 C-0.67 0.67 -0.34 0.34 0 0 Z " fill="#6B4014" transform="translate(705,355)"/>
<path d="M0 0 C0.99 0.495 0.99 0.495 2 1 C1.01 1.495 1.01 1.495 0 2 C0 1.34 0 0.68 0 0 Z " fill="#6B4014" transform="translate(710,348)"/>
<path d="M0 0 C0.33 0.66 0.66 1.32 1 2 C0.34 1.67 -0.32 1.34 -1 1 C-0.67 0.67 -0.34 0.34 0 0 Z " fill="#80511E" transform="translate(393,271)"/>
<path d="M0 0 C0.99 0.495 0.99 0.495 2 1 C1.01 1.495 1.01 1.495 0 2 C0 1.34 0 0.68 0 0 Z " fill="#956228" transform="translate(738,260)"/>
<path d="M0 0 C0.99 0.495 0.99 0.495 2 1 C1.01 1.495 1.01 1.495 0 2 C0 1.34 0 0.68 0 0 Z " fill="#301002" transform="translate(406,204)"/>
<path d="M0 0 C3 1 3 1 3 1 Z " fill="#6B4014" transform="translate(511,190)"/>
<path d="M0 0 C3 1 3 1 3 1 Z " fill="#100500" transform="translate(557,179)"/>
<path d="M0 0 C2 1 2 1 2 1 Z " fill="#000000" transform="translate(452,767)"/>
<path d="M0 0 C2 1 2 1 2 1 Z " fill="#000000" transform="translate(734,719)"/>
<path d="M0 0 C2 1 2 1 2 1 Z " fill="#180801" transform="translate(446,710)"/>
<path d="M0 0 C2 1 2 1 2 1 Z " fill="#180801" transform="translate(687,698)"/>
<path d="M0 0 C2 1 2 1 2 1 Z " fill="#000000" transform="translate(691,697)"/>
<path d="M0 0 C2 1 2 1 2 1 Z " fill="#180801" transform="translate(804,618)"/>
<path d="" fill="#301002" transform="translate(0,0)"/>
<path d="" fill="#180801" transform="translate(0,0)"/>
<path d="" fill="#000000" transform="translate(0,0)"/>
<path d="" fill="#000000" transform="translate(0,0)"/>
<path d="M0 0 C2 1 2 1 2 1 Z " fill="#000000" transform="translate(920,596)"/>
<path d="" fill="#8A5A23" transform="translate(0,0)"/>
<path d="" fill="#6B4014" transform="translate(0,0)"/>
<path d="" fill="#000000" transform="translate(0,0)"/>
<path d="" fill="#301002" transform="translate(0,0)"/>
<path d="" fill="#000000" transform="translate(0,0)"/>
<path d="" fill="#4D280B" transform="translate(0,0)"/>
<path d="" fill="#4D280B" transform="translate(0,0)"/>
<path d="M0 0 C2 1 2 1 2 1 Z " fill="#AA7432" transform="translate(687,317)"/>
<path d="" fill="#6D421A" transform="translate(0,0)"/>
<path d="" fill="#4D280B" transform="translate(0,0)"/>
<path d="M0 0 C2 1 2 1 2 1 Z " fill="#8A5A23" transform="translate(726,274)"/>
<path d="M0 0 C2 1 2 1 2 1 Z " fill="#6B4014" transform="translate(738,214)"/>
<path d="M0 0 C2 1 2 1 2 1 Z " fill="#4D280B" transform="translate(494,197)"/>
<path d="M0 0 C2 1 2 1 2 1 Z " fill="#301002" transform="translate(526,186)"/>
<path d="M0 0 C2 1 2 1 2 1 Z " fill="#4D280B" transform="translate(523,186)"/>
<path d="M0 0 C2 1 2 1 2 1 Z " fill="#4D280B" transform="translate(644,179)"/>
<path d="M0 0 C2 1 2 1 2 1 Z " fill="#000000" transform="translate(641,179)"/>
<path d="M0 0 C2 1 2 1 2 1 Z " fill="#6B4014" transform="translate(456,172)"/>
<path d="" fill="#6B4014" transform="translate(0,0)"/>
<path d="" fill="#000000" transform="translate(0,0)"/>
<path d="" fill="#6B4014" transform="translate(0,0)"/>
<path d="" fill="#6B4014" transform="translate(0,0)"/>
<path d="" fill="#301002" transform="translate(0,0)"/>
<path d="" fill="#6B4014" transform="translate(0,0)"/>
<path d="" fill="#000000" transform="translate(0,0)"/>
<path d="" fill="#000000" transform="translate(0,0)"/>
<path d="" fill="#000000" transform="translate(0,0)"/>
<path d="" fill="#301002" transform="translate(0,0)"/>
<path d="" fill="#000000" transform="translate(0,0)"/>
<path d="" fill="#6B4014" transform="translate(0,0)"/>
<path d="" fill="#301002" transform="translate(0,0)"/>
<path d="" fill="#000000" transform="translate(0,0)"/>
<path d="" fill="#000000" transform="translate(0,0)"/>
<path d="" fill="#000000" transform="translate(0,0)"/>
<path d="" fill="#301002" transform="translate(0,0)"/>
<path d="" fill="#000000" transform="translate(0,0)"/>
<path d="" fill="#301002" transform="translate(0,0)"/>
<path d="" fill="#6B4014" transform="translate(0,0)"/>
<path d="" fill="#301002" transform="translate(0,0)"/>
<path d="" fill="#301002" transform="translate(0,0)"/>
<path d="" fill="#000000" transform="translate(0,0)"/>
<path d="" fill="#301002" transform="translate(0,0)"/>
<path d="" fill="#301002" transform="translate(0,0)"/>
<path d="" fill="#301002" transform="translate(0,0)"/>
<path d="" fill="#6B4014" transform="translate(0,0)"/>
<path d="" fill="#000000" transform="translate(0,0)"/>
<path d="" fill="#301002" transform="translate(0,0)"/>
<path d="" fill="#301002" transform="translate(0,0)"/>
<path d="" fill="#000000" transform="translate(0,0)"/>
<path d="" fill="#AA7432" transform="translate(0,0)"/>
<path d="" fill="#000000" transform="translate(0,0)"/>
<path d="" fill="#301002" transform="translate(0,0)"/>
<path d="" fill="#000000" transform="translate(0,0)"/>
<path d="" fill="#000000" transform="translate(0,0)"/>
<path d="" fill="#000000" transform="translate(0,0)"/>
<path d="" fill="#301002" transform="translate(0,0)"/>
<path d="" fill="#000000" transform="translate(0,0)"/>
<path d="" fill="#301002" transform="translate(0,0)"/>
<path d="" fill="#000000" transform="translate(0,0)"/>
<path d="" fill="#000000" transform="translate(0,0)"/>
<path d="" fill="#000000" transform="translate(0,0)"/>
<path d="" fill="#000000" transform="translate(0,0)"/>
<path d="" fill="#301002" transform="translate(0,0)"/>
<path d="" fill="#301002" transform="translate(0,0)"/>
<path d="" fill="#301002" transform="translate(0,0)"/>
<path d="" fill="#301002" transform="translate(0,0)"/>
<path d="" fill="#000000" transform="translate(0,0)"/>
<path d="" fill="#000000" transform="translate(0,0)"/>
<path d="" fill="#000000" transform="translate(0,0)"/>
<path d="" fill="#6B4014" transform="translate(0,0)"/>
<path d="" fill="#000000" transform="translate(0,0)"/>
<path d="" fill="#301002" transform="translate(0,0)"/>
<path d="" fill="#000000" transform="translate(0,0)"/>
<path d="" fill="#000000" transform="translate(0,0)"/>
<path d="" fill="#AA7432" transform="translate(0,0)"/>
<path d="" fill="#AA7432" transform="translate(0,0)"/>
<path d="" fill="#000000" transform="translate(0,0)"/>
<path d="" fill="#000000" transform="translate(0,0)"/>
<path d="" fill="#301002" transform="translate(0,0)"/>
<path d="" fill="#301002" transform="translate(0,0)"/>
<path d="" fill="#301002" transform="translate(0,0)"/>
<path d="" fill="#301002" transform="translate(0,0)"/>
<path d="" fill="#301002" transform="translate(0,0)"/>
<path d="" fill="#000000" transform="translate(0,0)"/>
<path d="" fill="#6B4014" transform="translate(0,0)"/>
<path d="" fill="#301002" transform="translate(0,0)"/>
<path d="" fill="#301002" transform="translate(0,0)"/>
<path d="" fill="#301002" transform="translate(0,0)"/>
<path d="" fill="#000000" transform="translate(0,0)"/>
<path d="" fill="#301002" transform="translate(0,0)"/>
<path d="" fill="#301002" transform="translate(0,0)"/>
<path d="" fill="#6B4014" transform="translate(0,0)"/>
<path d="" fill="#301002" transform="translate(0,0)"/>
<path d="" fill="#6B4014" transform="translate(0,0)"/>
<path d="" fill="#6B4014" transform="translate(0,0)"/>
<path d="" fill="#000000" transform="translate(0,0)"/>
<path d="" fill="#000000" transform="translate(0,0)"/>
<path d="" fill="#000000" transform="translate(0,0)"/>
<path d="" fill="#000000" transform="translate(0,0)"/>
<path d="" fill="#301002" transform="translate(0,0)"/>
<path d="" fill="#301002" transform="translate(0,0)"/>
<path d="" fill="#AA7432" transform="translate(0,0)"/>
<path d="" fill="#AA7432" transform="translate(0,0)"/>
<path d="" fill="#AA7432" transform="translate(0,0)"/>
<path d="" fill="#000000" transform="translate(0,0)"/>
<path d="" fill="#AA7432" transform="translate(0,0)"/>
<path d="" fill="#AA7432" transform="translate(0,0)"/>
<path d="" fill="#AA7432" transform="translate(0,0)"/>
<path d="" fill="#AA7432" transform="translate(0,0)"/>
<path d="" fill="#6B4014" transform="translate(0,0)"/>
<path d="" fill="#301002" transform="translate(0,0)"/>
<path d="" fill="#301002" transform="translate(0,0)"/>
<path d="" fill="#301002" transform="translate(0,0)"/>
<path d="" fill="#301002" transform="translate(0,0)"/>
<path d="" fill="#AA7432" transform="translate(0,0)"/>
<path d="" fill="#AA7432" transform="translate(0,0)"/>
<path d="" fill="#301002" transform="translate(0,0)"/>
<path d="" fill="#AA7432" transform="translate(0,0)"/>
<path d="" fill="#6B4014" transform="translate(0,0)"/>
<path d="" fill="#AA7432" transform="translate(0,0)"/>
<path d="" fill="#AA7432" transform="translate(0,0)"/>
<path d="" fill="#AA7432" transform="translate(0,0)"/>
<path d="" fill="#000000" transform="translate(0,0)"/>
<path d="" fill="#6B4014" transform="translate(0,0)"/>
<path d="" fill="#AA7432" transform="translate(0,0)"/>
<path d="" fill="#AA7432" transform="translate(0,0)"/>
<path d="" fill="#6B4014" transform="translate(0,0)"/>
<path d="" fill="#6B4014" transform="translate(0,0)"/>
<path d="" fill="#6B4014" transform="translate(0,0)"/>
<path d="" fill="#000000" transform="translate(0,0)"/>
<path d="" fill="#6B4014" transform="translate(0,0)"/>
<path d="" fill="#301002" transform="translate(0,0)"/>
<path d="" fill="#6B4014" transform="translate(0,0)"/>
<path d="" fill="#000000" transform="translate(0,0)"/>
<path d="" fill="#AA7432" transform="translate(0,0)"/>
<path d="" fill="#000000" transform="translate(0,0)"/>
<path d="" fill="#000000" transform="translate(0,0)"/>
<path d="" fill="#000000" transform="translate(0,0)"/>
<path d="" fill="#6B4014" transform="translate(0,0)"/>
<path d="" fill="#6B4014" transform="translate(0,0)"/>
<path d="" fill="#AA7432" transform="translate(0,0)"/>
<path d="" fill="#301002" transform="translate(0,0)"/>
<path d="" fill="#000000" transform="translate(0,0)"/>
<path d="" fill="#6B4014" transform="translate(0,0)"/>
<path d="" fill="#6B4014" transform="translate(0,0)"/>
<path d="" fill="#AA7432" transform="translate(0,0)"/>
<path d="" fill="#AA7432" transform="translate(0,0)"/>
<path d="" fill="#AA7432" transform="translate(0,0)"/>
</svg>
